<?plantuml 1.2026.1?><svg xmlns="http://www.w3.org/2000/svg" xmlns:xlink="http://www.w3.org/1999/xlink" contentStyleType="text/css" data-diagram-type="CLASS" height="937px" preserveAspectRatio="none" style="width:1218px;height:937px;background:#FFFFFF;" version="1.1" viewBox="0 0 1218 937" width="1218px" zoomAndPan="magnify"><defs/><g><!--class CanonicalEntityIdentifier--><g class="entity" data-qualified-name="CanonicalEntityIdentifier" data-source-line="1" id="ent0002"><a href="" target="_top" title="A logical identity construct providing a stable identity anchor." xlink:actuate="onRequest" xlink:href="" xlink:show="new" xlink:title="A logical identity construct providing a stable identity anchor." xlink:type="simple"><rect fill="#F1F1F1" height="64.2969" rx="2.5" ry="2.5" style="stroke:#181818;stroke-width:0.5;" width="204.6621" x="7" y="643.34"/><ellipse cx="22" cy="659.34" fill="#ADD1B2" rx="11" ry="11" style="stroke:#181818;stroke-width:1;"/><path d="M24.9688,664.9806 Q24.3906,665.2775 23.75,665.4181 Q23.1094,665.5744 22.4063,665.5744 Q19.9063,665.5744 18.5781,663.9338 Q17.2656,662.2775 17.2656,659.1525 Q17.2656,656.0275 18.5781,654.3713 Q19.9063,652.715 22.4063,652.715 Q23.1094,652.715 23.75,652.8713 Q24.4063,653.0275 24.9688,653.3244 L24.9688,656.0431 Q24.3438,655.465 23.75,655.1994 Q23.1563,654.9181 22.5313,654.9181 Q21.1875,654.9181 20.5,655.9963 Q19.8125,657.0588 19.8125,659.1525 Q19.8125,661.2463 20.5,662.3244 Q21.1875,663.3869 22.5313,663.3869 Q23.1563,663.3869 23.75,663.1213 Q24.3438,662.84 24.9688,662.2619 L24.9688,664.9806 Z " fill="#000000"/><text fill="#000000" font-family="sans-serif" font-size="14" lengthAdjust="spacing" textLength="172.6621" x="36" y="664.1867">CanonicalEntityIdentifier</text><line style="stroke:#181818;stroke-width:0.5;" x1="8" x2="210.6621" y1="675.34" y2="675.34"/><text fill="#000000" font-family="sans-serif" font-size="14" lengthAdjust="spacing" textLength="116.6348" x="13" y="692.3351">identifier : string</text><line style="stroke:#181818;stroke-width:0.5;" x1="8" x2="210.6621" y1="699.6369" y2="699.6369"/></a></g><!--class EntityMentionIdentifier--><g class="entity" data-qualified-name="EntityMentionIdentifier" data-source-line="4" id="ent0003"><a href="" target="_top" title="A container that groups the attributes needed to identify an entity mention in a resolution request" xlink:actuate="onRequest" xlink:href="" xlink:show="new" xlink:title="A container that groups the attributes needed to identify an entity mention in a resolution request" xlink:type="simple"><rect fill="#F1F1F1" height="96.8906" rx="2.5" ry="2.5" style="stroke:#181818;stroke-width:0.5;" width="192.3232" x="312.17" y="833.53"/><ellipse cx="327.17" cy="849.53" fill="#ADD1B2" rx="11" ry="11" style="stroke:#181818;stroke-width:1;"/><path d="M330.1388,855.1706 Q329.5606,855.4675 328.92,855.6081 Q328.2794,855.7644 327.5763,855.7644 Q325.0763,855.7644 323.7481,854.1238 Q322.4356,852.4675 322.4356,849.3425 Q322.4356,846.2175 323.7481,844.5613 Q325.0763,842.905 327.5763,842.905 Q328.2794,842.905 328.92,843.0613 Q329.5763,843.2175 330.1388,843.5144 L330.1388,846.2331 Q329.5138,845.655 328.92,845.3894 Q328.3263,845.1081 327.7013,845.1081 Q326.3575,845.1081 325.67,846.1863 Q324.9825,847.2488 324.9825,849.3425 Q324.9825,851.4363 325.67,852.5144 Q326.3575,853.5769 327.7013,853.5769 Q328.3263,853.5769 328.92,853.3113 Q329.5138,853.03 330.1388,852.4519 L330.1388,855.1706 Z " fill="#000000"/><text fill="#000000" font-family="sans-serif" font-size="14" lengthAdjust="spacing" textLength="160.3232" x="341.17" y="854.3767">EntityMentionIdentifier</text><line style="stroke:#181818;stroke-width:0.5;" x1="313.17" x2="503.4932" y1="865.53" y2="865.53"/><text fill="#000000" font-family="sans-serif" font-size="14" lengthAdjust="spacing" textLength="120.3809" x="318.17" y="882.5251">source_id : string</text><text fill="#000000" font-family="sans-serif" font-size="14" lengthAdjust="spacing" textLength="127.1074" x="318.17" y="898.822">request_id : string</text><text fill="#000000" font-family="sans-serif" font-size="14" lengthAdjust="spacing" textLength="132.7197" x="318.17" y="915.1189">entity_type : string</text><line style="stroke:#181818;stroke-width:0.5;" x1="313.17" x2="503.4932" y1="922.4206" y2="922.4206"/></a></g><!--class Decision--><g class="entity" data-qualified-name="Decision" data-source-line="9" id="ent0004"><a href="" target="_top" title="Aggregate root representing a resolution decision requiring curation." xlink:actuate="onRequest" xlink:href="" xlink:show="new" xlink:title="Aggregate root representing a resolution decision requiring curation." xlink:type="simple"><rect fill="#F1F1F1" height="129.4844" rx="2.5" ry="2.5" style="stroke:#181818;stroke-width:0.5;" width="172.8496" x="819.91" y="610.75"/><ellipse cx="872.2835" cy="626.75" fill="#ADD1B2" rx="11" ry="11" style="stroke:#181818;stroke-width:1;"/><path d="M875.2523,632.3906 Q874.6742,632.6875 874.0335,632.8281 Q873.3929,632.9844 872.6898,632.9844 Q870.1898,632.9844 868.8617,631.3437 Q867.5492,629.6875 867.5492,626.5625 Q867.5492,623.4375 868.8617,621.7812 Q870.1898,620.125 872.6898,620.125 Q873.3929,620.125 874.0335,620.2812 Q874.6898,620.4375 875.2523,620.7344 L875.2523,623.4531 Q874.6273,622.875 874.0335,622.6094 Q873.4398,622.3281 872.8148,622.3281 Q871.471,622.3281 870.7835,623.4062 Q870.096,624.4687 870.096,626.5625 Q870.096,628.6562 870.7835,629.7344 Q871.471,630.7969 872.8148,630.7969 Q873.4398,630.7969 874.0335,630.5312 Q874.6273,630.25 875.2523,629.6719 L875.2523,632.3906 Z " fill="#000000"/><text fill="#000000" font-family="sans-serif" font-size="14" lengthAdjust="spacing" textLength="59.6025" x="892.7835" y="631.5967">Decision</text><line style="stroke:#181818;stroke-width:0.5;" x1="820.91" x2="991.7596" y1="642.75" y2="642.75"/><text fill="#000000" font-family="sans-serif" font-size="14" lengthAdjust="spacing" textLength="66.582" x="825.91" y="659.7451">id : string</text><text fill="#000000" font-family="sans-serif" font-size="14" lengthAdjust="spacing" textLength="160.8496" x="825.91" y="676.042">status : DecisionStatus</text><text fill="#000000" font-family="sans-serif" font-size="14" lengthAdjust="spacing" textLength="160.4053" x="825.91" y="692.3389">action : DecisionAction</text><text fill="#000000" font-family="sans-serif" font-size="14" lengthAdjust="spacing" textLength="151.5186" x="825.91" y="708.6357">created_at : datetime</text><text fill="#000000" font-family="sans-serif" font-size="14" lengthAdjust="spacing" textLength="156.0986" x="825.91" y="724.9326">updated_at : datetime</text><line style="stroke:#181818;stroke-width:0.5;" x1="820.91" x2="991.7596" y1="732.2344" y2="732.2344"/></a></g><!--class EntityMentionResolutionResponse--><g class="entity" data-qualified-name="EntityMentionResolutionResponse" data-source-line="16" id="ent0005"><a href="" target="_top" title="An entity resolution response returned by the ERE." xlink:actuate="onRequest" xlink:href="" xlink:show="new" xlink:title="An entity resolution response returned by the ERE." xlink:type="simple"><rect fill="#F1F1F1" height="96.8906" rx="2.5" ry="2.5" style="stroke:#181818;stroke-width:0.5;" width="270.9023" x="505.88" y="627.05"/><ellipse cx="520.88" cy="643.05" fill="#ADD1B2" rx="11" ry="11" style="stroke:#181818;stroke-width:1;"/><path d="M523.8488,648.6906 Q523.2706,648.9875 522.63,649.1281 Q521.9894,649.2844 521.2863,649.2844 Q518.7863,649.2844 517.4581,647.6438 Q516.1456,645.9875 516.1456,642.8625 Q516.1456,639.7375 517.4581,638.0813 Q518.7863,636.425 521.2863,636.425 Q521.9894,636.425 522.63,636.5813 Q523.2863,636.7375 523.8488,637.0344 L523.8488,639.7531 Q523.2238,639.175 522.63,638.9094 Q522.0363,638.6281 521.4113,638.6281 Q520.0675,638.6281 519.38,639.7063 Q518.6925,640.7688 518.6925,642.8625 Q518.6925,644.9563 519.38,646.0344 Q520.0675,647.0969 521.4113,647.0969 Q522.0363,647.0969 522.63,646.8313 Q523.2238,646.55 523.8488,645.9719 L523.8488,648.6906 Z " fill="#000000"/><text fill="#000000" font-family="sans-serif" font-size="14" lengthAdjust="spacing" textLength="238.9023" x="534.88" y="647.8967">EntityMentionResolutionResponse</text><line style="stroke:#181818;stroke-width:0.5;" x1="506.88" x2="775.7823" y1="659.05" y2="659.05"/><text fill="#000000" font-family="sans-serif" font-size="14" lengthAdjust="spacing" textLength="99.8936" x="511.88" y="676.0451">type(i) : string</text><text fill="#000000" font-family="sans-serif" font-size="14" lengthAdjust="spacing" textLength="171.9033" x="511.88" y="692.342">ere_request_id(i) : string</text><text fill="#000000" font-family="sans-serif" font-size="14" lengthAdjust="spacing" textLength="167.1455" x="511.88" y="708.6389">timestamp(i) : datetime</text><line style="stroke:#181818;stroke-width:0.5;" x1="506.88" x2="775.7823" y1="715.9406" y2="715.9406"/></a></g><!--class EntityMention--><g class="entity" data-qualified-name="EntityMention" data-source-line="21" id="ent0006"><a href="" target="_top" title="An entity mention is a representation of a real-world entity, as provided by the ERS." xlink:actuate="onRequest" xlink:href="" xlink:show="new" xlink:title="An entity mention is a representation of a real-world entity, as provided by the ERS." xlink:type="simple"><rect fill="#F1F1F1" height="96.8906" rx="2.5" ry="2.5" style="stroke:#181818;stroke-width:0.5;" width="224.1123" x="246.27" y="627.05"/><ellipse cx="305.4487" cy="643.05" fill="#ADD1B2" rx="11" ry="11" style="stroke:#181818;stroke-width:1;"/><path d="M308.4175,648.6906 Q307.8393,648.9875 307.1987,649.1281 Q306.5581,649.2844 305.855,649.2844 Q303.355,649.2844 302.0268,647.6438 Q300.7143,645.9875 300.7143,642.8625 Q300.7143,639.7375 302.0268,638.0813 Q303.355,636.425 305.855,636.425 Q306.5581,636.425 307.1987,636.5813 Q307.855,636.7375 308.4175,637.0344 L308.4175,639.7531 Q307.7925,639.175 307.1987,638.9094 Q306.605,638.6281 305.98,638.6281 Q304.6362,638.6281 303.9487,639.7063 Q303.2612,640.7688 303.2612,642.8625 Q303.2612,644.9563 303.9487,646.0344 Q304.6362,647.0969 305.98,647.0969 Q306.605,647.0969 307.1987,646.8313 Q307.7925,646.55 308.4175,645.9719 L308.4175,648.6906 Z " fill="#000000"/><text fill="#000000" font-family="sans-serif" font-size="14" lengthAdjust="spacing" textLength="97.2549" x="325.9487" y="647.8967">EntityMention</text><line style="stroke:#181818;stroke-width:0.5;" x1="247.27" x2="469.3823" y1="659.05" y2="659.05"/><text fill="#000000" font-family="sans-serif" font-size="14" lengthAdjust="spacing" textLength="145.6807" x="252.27" y="676.0451">content_type : string</text><text fill="#000000" font-family="sans-serif" font-size="14" lengthAdjust="spacing" textLength="107.4063" x="252.27" y="692.342">content : string</text><text fill="#000000" font-family="sans-serif" font-size="14" lengthAdjust="spacing" textLength="212.1123" x="252.27" y="708.6389">parsed_representation : string</text><line style="stroke:#181818;stroke-width:0.5;" x1="247.27" x2="469.3823" y1="715.9406" y2="715.9406"/></a></g><!--class ClusterReference--><g class="entity" data-qualified-name="ClusterReference" data-source-line="30" id="ent0011"><a href="" target="_top" title="A reference to a cluster to which an entity is deemed to belong, with an associated confidence and similarity scores." xlink:actuate="onRequest" xlink:href="" xlink:show="new" xlink:title="A reference to a cluster to which an entity is deemed to belong, with an associated confidence and similarity scores." xlink:type="simple"><rect fill="#F1F1F1" height="96.8906" rx="2.5" ry="2.5" style="stroke:#181818;stroke-width:0.5;" width="178.6328" x="824.01" y="833.53"/><ellipse cx="850.4881" cy="849.53" fill="#ADD1B2" rx="11" ry="11" style="stroke:#181818;stroke-width:1;"/><path d="M853.4568,855.1706 Q852.8787,855.4675 852.2381,855.6081 Q851.5975,855.7644 850.8943,855.7644 Q848.3943,855.7644 847.0662,854.1238 Q845.7537,852.4675 845.7537,849.3425 Q845.7537,846.2175 847.0662,844.5613 Q848.3943,842.905 850.8943,842.905 Q851.5975,842.905 852.2381,843.0613 Q852.8943,843.2175 853.4568,843.5144 L853.4568,846.2331 Q852.8318,845.655 852.2381,845.3894 Q851.6443,845.1081 851.0193,845.1081 Q849.6756,845.1081 848.9881,846.1863 Q848.3006,847.2488 848.3006,849.3425 Q848.3006,851.4363 848.9881,852.5144 Q849.6756,853.5769 851.0193,853.5769 Q851.6443,853.5769 852.2381,853.3113 Q852.8318,853.03 853.4568,852.4519 L853.4568,855.1706 Z " fill="#000000"/><text fill="#000000" font-family="sans-serif" font-size="14" lengthAdjust="spacing" textLength="121.126" x="867.0388" y="854.3767">ClusterReference</text><line style="stroke:#181818;stroke-width:0.5;" x1="825.01" x2="1001.6428" y1="865.53" y2="865.53"/><text fill="#000000" font-family="sans-serif" font-size="14" lengthAdjust="spacing" textLength="121.1943" x="830.01" y="882.5251">cluster_id : string</text><text fill="#000000" font-family="sans-serif" font-size="14" lengthAdjust="spacing" textLength="166.6328" x="830.01" y="898.822">confidence_score : float</text><text fill="#000000" font-family="sans-serif" font-size="14" lengthAdjust="spacing" textLength="154.5947" x="830.01" y="915.1189">similarity_score : float</text><line style="stroke:#181818;stroke-width:0.5;" x1="825.01" x2="1001.6428" y1="922.4206" y2="922.4206"/></a></g><!--class EREResponse--><g class="entity" data-qualified-name="EREResponse" data-source-line="35" id="ent0012"><a href="" target="_top" title="Root class to represent all the responses sent by the ERE." xlink:actuate="onRequest" xlink:href="" xlink:show="new" xlink:title="Root class to represent all the responses sent by the ERE." xlink:type="simple"><rect fill="#F1F1F1" height="96.8906" rx="2.5" ry="2.5" style="stroke:#181818;stroke-width:0.5;" width="183.9033" x="549.38" y="404.26"/><ellipse cx="589.8577" cy="420.26" fill="#A9DCDF" rx="11" ry="11" style="stroke:#181818;stroke-width:1;"/><path d="M589.9671,415.6038 L588.8109,420.6819 L591.139,420.6819 L589.9671,415.6038 Z M588.4827,413.3694 L591.4671,413.3694 L594.8265,425.76 L592.3734,425.76 L591.6077,422.6975 L588.3265,422.6975 L587.5765,425.76 L585.139,425.76 L588.4827,413.3694 Z " fill="#000000"/><text fill="#000000" font-family="sans-serif" font-size="14" font-style="italic" lengthAdjust="spacing" textLength="95.2861" x="609.5195" y="425.1067">EREResponse</text><line style="stroke:#181818;stroke-width:0.5;" x1="550.38" x2="732.2833" y1="436.26" y2="436.26"/><text fill="#000000" font-family="sans-serif" font-size="14" lengthAdjust="spacing" textLength="99.8936" x="555.38" y="453.2551">type(i) : string</text><text fill="#000000" font-family="sans-serif" font-size="14" lengthAdjust="spacing" textLength="171.9033" x="555.38" y="469.552">ere_request_id(i) : string</text><text fill="#000000" font-family="sans-serif" font-size="14" lengthAdjust="spacing" textLength="167.1455" x="555.38" y="485.8489">timestamp(i) : datetime</text><line style="stroke:#181818;stroke-width:0.5;" x1="550.38" x2="732.2833" y1="493.1506" y2="493.1506"/></a></g><!--class EntityMentionResolutionRequest--><g class="entity" data-qualified-name="EntityMentionResolutionRequest" data-source-line="42" id="ent0015"><a href="" target="_top" title="An entity resolution request sent to the ERE, containing the entity to be resolved." xlink:actuate="onRequest" xlink:href="" xlink:show="new" xlink:title="An entity resolution request sent to the ERE, containing the entity to be resolved." xlink:type="simple"><rect fill="#F1F1F1" height="129.4844" rx="2.5" ry="2.5" style="stroke:#181818;stroke-width:0.5;" width="260.5322" x="248.06" y="387.97"/><ellipse cx="263.06" cy="403.97" fill="#ADD1B2" rx="11" ry="11" style="stroke:#181818;stroke-width:1;"/><path d="M266.0288,409.6106 Q265.4506,409.9075 264.81,410.0481 Q264.1694,410.2044 263.4663,410.2044 Q260.9663,410.2044 259.6381,408.5637 Q258.3256,406.9075 258.3256,403.7825 Q258.3256,400.6575 259.6381,399.0012 Q260.9663,397.345 263.4663,397.345 Q264.1694,397.345 264.81,397.5012 Q265.4663,397.6575 266.0288,397.9544 L266.0288,400.6731 Q265.4038,400.095 264.81,399.8294 Q264.2163,399.5481 263.5913,399.5481 Q262.2475,399.5481 261.56,400.6262 Q260.8725,401.6887 260.8725,403.7825 Q260.8725,405.8762 261.56,406.9544 Q262.2475,408.0169 263.5913,408.0169 Q264.2163,408.0169 264.81,407.7512 Q265.4038,407.47 266.0288,406.8919 L266.0288,409.6106 Z " fill="#000000"/><text fill="#000000" font-family="sans-serif" font-size="14" lengthAdjust="spacing" textLength="228.5322" x="277.06" y="408.8167">EntityMentionResolutionRequest</text><line style="stroke:#181818;stroke-width:0.5;" x1="249.06" x2="507.5922" y1="419.97" y2="419.97"/><text fill="#000000" font-family="sans-serif" font-size="14" lengthAdjust="spacing" textLength="245.5742" x="254.06" y="436.9651">proposed_cluster_ids : string  [0..*]</text><text fill="#000000" font-family="sans-serif" font-size="14" lengthAdjust="spacing" textLength="243.8652" x="254.06" y="453.262">excluded_cluster_ids : string  [0..*]</text><text fill="#000000" font-family="sans-serif" font-size="14" lengthAdjust="spacing" textLength="99.8936" x="254.06" y="469.5589">type(i) : string</text><text fill="#000000" font-family="sans-serif" font-size="14" lengthAdjust="spacing" textLength="171.9033" x="254.06" y="485.8557">ere_request_id(i) : string</text><text fill="#000000" font-family="sans-serif" font-size="14" lengthAdjust="spacing" textLength="167.1455" x="254.06" y="502.1526">timestamp(i) : datetime</text><line style="stroke:#181818;stroke-width:0.5;" x1="249.06" x2="507.5922" y1="509.4544" y2="509.4544"/></a></g><!--class ERERequest--><g class="entity" data-qualified-name="ERERequest" data-source-line="50" id="ent0017"><a href="" target="_top" title="Root class to represent all the requests sent to the ERE." xlink:actuate="onRequest" xlink:href="" xlink:show="new" xlink:title="Root class to represent all the requests sent to the ERE." xlink:type="simple"><rect fill="#F1F1F1" height="96.8906" rx="2.5" ry="2.5" style="stroke:#181818;stroke-width:0.5;" width="183.9033" x="370.38" y="230.08"/><ellipse cx="415.6237" cy="246.08" fill="#A9DCDF" rx="11" ry="11" style="stroke:#181818;stroke-width:1;"/><path d="M415.733,241.4237 L414.5768,246.5019 L416.9049,246.5019 L415.733,241.4237 Z M414.2487,239.1894 L417.233,239.1894 L420.5924,251.58 L418.1393,251.58 L417.3737,248.5175 L414.0924,248.5175 L413.3424,251.58 L410.9049,251.58 L414.2487,239.1894 Z " fill="#000000"/><text fill="#000000" font-family="sans-serif" font-size="14" font-style="italic" lengthAdjust="spacing" textLength="84.916" x="436.1237" y="250.9267">ERERequest</text><line style="stroke:#181818;stroke-width:0.5;" x1="371.38" x2="553.2833" y1="262.08" y2="262.08"/><text fill="#000000" font-family="sans-serif" font-size="14" lengthAdjust="spacing" textLength="99.8936" x="376.38" y="279.0751">type(i) : string</text><text fill="#000000" font-family="sans-serif" font-size="14" lengthAdjust="spacing" textLength="171.9033" x="376.38" y="295.372">ere_request_id(i) : string</text><text fill="#000000" font-family="sans-serif" font-size="14" lengthAdjust="spacing" textLength="167.1455" x="376.38" y="311.6689">timestamp(i) : datetime</text><line style="stroke:#181818;stroke-width:0.5;" x1="371.38" x2="553.2833" y1="318.9706" y2="318.9706"/></a></g><!--class EREErrorResponse--><g class="entity" data-qualified-name="EREErrorResponse" data-source-line="56" id="ent0019"><a href="" target="_top" title="Response sent by the ERE when some error/exception occurs while processing a request." xlink:actuate="onRequest" xlink:href="" xlink:show="new" xlink:title="Response sent by the ERE when some error/exception occurs while processing a request." xlink:type="simple"><rect fill="#F1F1F1" height="162.0781" rx="2.5" ry="2.5" style="stroke:#181818;stroke-width:0.5;" width="183.9033" x="1027.38" y="594.45"/><ellipse cx="1052.2523" cy="610.45" fill="#ADD1B2" rx="11" ry="11" style="stroke:#181818;stroke-width:1;"/><path d="M1055.2211,616.0906 Q1054.6429,616.3875 1054.0023,616.5281 Q1053.3617,616.6844 1052.6586,616.6844 Q1050.1586,616.6844 1048.8304,615.0437 Q1047.5179,613.3875 1047.5179,610.2625 Q1047.5179,607.1375 1048.8304,605.4812 Q1050.1586,603.825 1052.6586,603.825 Q1053.3617,603.825 1054.0023,603.9812 Q1054.6586,604.1375 1055.2211,604.4344 L1055.2211,607.1531 Q1054.5961,606.575 1054.0023,606.3094 Q1053.4086,606.0281 1052.7836,606.0281 Q1051.4398,606.0281 1050.7523,607.1062 Q1050.0648,608.1687 1050.0648,610.2625 Q1050.0648,612.3562 1050.7523,613.4344 Q1051.4398,614.4969 1052.7836,614.4969 Q1053.4086,614.4969 1054.0023,614.2312 Q1054.5961,613.95 1055.2211,613.3719 L1055.2211,616.0906 Z " fill="#000000"/><text fill="#000000" font-family="sans-serif" font-size="14" lengthAdjust="spacing" textLength="129.9648" x="1068.4462" y="615.2967">EREErrorResponse</text><line style="stroke:#181818;stroke-width:0.5;" x1="1028.38" x2="1210.2833" y1="626.45" y2="626.45"/><text fill="#000000" font-family="sans-serif" font-size="14" lengthAdjust="spacing" textLength="126.5264" x="1033.38" y="643.4451">error_type : string</text><text fill="#000000" font-family="sans-serif" font-size="14" lengthAdjust="spacing" textLength="122.623" x="1033.38" y="659.742">error_title : string</text><text fill="#000000" font-family="sans-serif" font-size="14" lengthAdjust="spacing" textLength="134.5996" x="1033.38" y="676.0389">error_detail : string</text><text fill="#000000" font-family="sans-serif" font-size="14" lengthAdjust="spacing" textLength="131.3867" x="1033.38" y="692.3357">error_trace : string</text><text fill="#000000" font-family="sans-serif" font-size="14" lengthAdjust="spacing" textLength="99.8936" x="1033.38" y="708.6326">type(i) : string</text><text fill="#000000" font-family="sans-serif" font-size="14" lengthAdjust="spacing" textLength="171.9033" x="1033.38" y="724.9295">ere_request_id(i) : string</text><text fill="#000000" font-family="sans-serif" font-size="14" lengthAdjust="spacing" textLength="167.1455" x="1033.38" y="741.2264">timestamp(i) : datetime</text><line style="stroke:#181818;stroke-width:0.5;" x1="1028.38" x2="1210.2833" y1="748.5281" y2="748.5281"/></a></g><!--class EREMessage--><g class="entity" data-qualified-name="EREMessage" data-source-line="65" id="ent0020"><a href="" target="_top" title="Root abstraction to represent attributes common to both requests and results." xlink:actuate="onRequest" xlink:href="" xlink:show="new" xlink:title="Root abstraction to represent attributes common to both requests and results." xlink:type="simple"><rect fill="#F1F1F1" height="96.8906" rx="2.5" ry="2.5" style="stroke:#181818;stroke-width:0.5;" width="169.0898" x="463.79" y="39.59"/><ellipse cx="500.5302" cy="55.59" fill="#A9DCDF" rx="11" ry="11" style="stroke:#181818;stroke-width:1;"/><path d="M500.6396,50.9337 L499.4833,56.0119 L501.8114,56.0119 L500.6396,50.9337 Z M499.1552,48.6994 L502.1396,48.6994 L505.4989,61.09 L503.0458,61.09 L502.2802,58.0275 L498.9989,58.0275 L498.2489,61.09 L495.8114,61.09 L499.1552,48.6994 Z " fill="#000000"/><text fill="#000000" font-family="sans-serif" font-size="14" font-style="italic" lengthAdjust="spacing" textLength="88.7783" x="519.3613" y="60.4367">EREMessage</text><line style="stroke:#181818;stroke-width:0.5;" x1="464.79" x2="631.8798" y1="71.59" y2="71.59"/><text fill="#000000" font-family="sans-serif" font-size="14" lengthAdjust="spacing" textLength="85.0801" x="469.79" y="88.5851">type : string</text><text fill="#000000" font-family="sans-serif" font-size="14" lengthAdjust="spacing" textLength="157.0898" x="469.79" y="104.882">ere_request_id : string</text><text fill="#000000" font-family="sans-serif" font-size="14" lengthAdjust="spacing" textLength="152.332" x="469.79" y="121.1789">timestamp : datetime</text><line style="stroke:#181818;stroke-width:0.5;" x1="464.79" x2="631.8798" y1="128.4806" y2="128.4806"/></a></g><!--class AuditLog--><g class="entity" data-qualified-name="AuditLog" data-source-line="75" id="ent0026"><a href="" target="_top" title="Audit trail entry for curation actions" xlink:actuate="onRequest" xlink:href="" xlink:show="new" xlink:title="Audit trail entry for curation actions" xlink:type="simple"><rect fill="#F1F1F1" height="162.0781" rx="2.5" ry="2.5" style="stroke:#181818;stroke-width:0.5;" width="163.5186" x="667.57" y="7"/><ellipse cx="714.0954" cy="23" fill="#ADD1B2" rx="11" ry="11" style="stroke:#181818;stroke-width:1;"/><path d="M717.0641,28.6406 Q716.486,28.9375 715.8454,29.0781 Q715.2048,29.2344 714.5016,29.2344 Q712.0016,29.2344 710.6735,27.5938 Q709.361,25.9375 709.361,22.8125 Q709.361,19.6875 710.6735,18.0313 Q712.0016,16.375 714.5016,16.375 Q715.2048,16.375 715.8454,16.5313 Q716.5016,16.6875 717.0641,16.9844 L717.0641,19.7031 Q716.4391,19.125 715.8454,18.8594 Q715.2516,18.5781 714.6266,18.5781 Q713.2829,18.5781 712.5954,19.6563 Q711.9079,20.7188 711.9079,22.8125 Q711.9079,24.9063 712.5954,25.9844 Q713.2829,27.0469 714.6266,27.0469 Q715.2516,27.0469 715.8454,26.7813 Q716.4391,26.5 717.0641,25.9219 L717.0641,28.6406 Z " fill="#000000"/><text fill="#000000" font-family="sans-serif" font-size="14" lengthAdjust="spacing" textLength="61.9678" x="734.5954" y="27.8467">AuditLog</text><line style="stroke:#181818;stroke-width:0.5;" x1="668.57" x2="830.0886" y1="39" y2="39"/><text fill="#000000" font-family="sans-serif" font-size="14" lengthAdjust="spacing" textLength="66.582" x="673.57" y="55.9951">id : string</text><text fill="#000000" font-family="sans-serif" font-size="14" lengthAdjust="spacing" textLength="89.8926" x="673.57" y="72.292">actor : string</text><text fill="#000000" font-family="sans-serif" font-size="14" lengthAdjust="spacing" textLength="137.5186" x="673.57" y="88.5889">action : AuditAction</text><text fill="#000000" font-family="sans-serif" font-size="14" lengthAdjust="spacing" textLength="151.3887" x="673.57" y="104.8857">instance_type : string</text><text fill="#000000" font-family="sans-serif" font-size="14" lengthAdjust="spacing" textLength="132.8906" x="673.57" y="121.1826">instance_id : string</text><text fill="#000000" font-family="sans-serif" font-size="14" lengthAdjust="spacing" textLength="112.6221" x="673.57" y="137.4795">changes : string</text><text fill="#000000" font-family="sans-serif" font-size="14" lengthAdjust="spacing" textLength="151.5186" x="673.57" y="153.7764">created_at : datetime</text><line style="stroke:#181818;stroke-width:0.5;" x1="668.57" x2="830.0886" y1="161.0781" y2="161.0781"/></a></g><!--link CanonicalEntityIdentifier to EntityMentionIdentifier--><g class="link" data-entity-1="ent0002" data-entity-2="ent0003" data-link-type="composition" data-source-line="26" id="lnk7"><path codeLine="26" d="M149.1106,716.3783 C177.2506,743.7583 212,775.02 254.33,803.53 C272.2,815.57 286.8778,824.1898 306.3978,834.3498" fill="none" id="CanonicalEntityIdentifier-EntityMentionIdentifier" style="stroke:#181818;stroke-width:1;"/><polygon fill="#181818" points="140.51,708.01,142.0209,715.061,149.1106,716.3783,147.5998,709.3273,140.51,708.01" style="stroke:#181818;stroke-width:1;"/><polygon fill="#181818" points="311.72,837.12,305.5834,829.4166,307.2848,834.8115,301.8899,836.5129,311.72,837.12" style="stroke:#181818;stroke-width:1;"/><text fill="#000000" font-family="sans-serif" font-size="13" lengthAdjust="spacing" textLength="88.2578" x="255.33" y="799.5969">equivalent_to</text><text fill="#000000" font-family="sans-serif" font-size="13" lengthAdjust="spacing" textLength="23.0356" x="281.1197" y="830.5103">1..*</text></g><!--link Decision to EntityMentionIdentifier--><g class="link" data-entity-1="ent0004" data-entity-2="ent0003" data-link-type="composition" data-source-line="27" id="lnk8"><path codeLine="27" d="M809.9578,747.2492 C801.4278,752.8292 802.82,751.64 794.33,756.53 C702.81,809.23 591.8541,841.541 510.8341,860.381" fill="none" id="Decision-EntityMentionIdentifier" style="stroke:#181818;stroke-width:1;"/><polygon fill="#181818" points="820,740.68,812.7892,740.6172,809.9578,747.2492,817.1686,747.312,820,740.68" style="stroke:#181818;stroke-width:1;"/><polygon fill="#181818" points="504.99,861.74,514.6621,863.5976,509.8601,860.6075,512.8501,855.8055,504.99,861.74" style="stroke:#181818;stroke-width:1;"/><text fill="#000000" font-family="sans-serif" font-size="13" lengthAdjust="spacing" textLength="142.0479" x="736.33" y="799.5969">about_entity_mention</text><text fill="#000000" font-family="sans-serif" font-size="13" lengthAdjust="spacing" textLength="8.271" x="512.3921" y="856.775">1</text></g><!--link EntityMentionResolutionResponse to EntityMentionIdentifier--><g class="link" data-entity-1="ent0005" data-entity-2="ent0003" data-link-type="composition" data-source-line="28" id="lnk9"><path codeLine="28" d="M526.276,730.3944 C497.426,747.1044 478.2,761.94 455.33,786.53 C442.86,799.94 435.4705,811.8405 428.0305,827.9905" fill="none" id="EntityMentionResolutionResponse-EntityMentionIdentifier" style="stroke:#181818;stroke-width:1;"/><polygon fill="#181818" points="536.66,724.38,529.4632,723.9259,526.276,730.3944,533.4728,730.8485,536.66,724.38" style="stroke:#181818;stroke-width:1;"/><polygon fill="#181818" points="425.52,833.44,432.9188,826.9394,427.6121,828.8987,425.6527,823.592,425.52,833.44" style="stroke:#181818;stroke-width:1;"/><text fill="#000000" font-family="sans-serif" font-size="13" lengthAdjust="spacing" textLength="116.4033" x="456.33" y="799.5969">entity_mention_id</text><text fill="#000000" font-family="sans-serif" font-size="13" lengthAdjust="spacing" textLength="8.271" x="419.3937" y="822.6363">1</text></g><!--link EntityMention to EntityMentionIdentifier--><g class="link" data-entity-1="ent0006" data-entity-2="ent0003" data-link-type="composition" data-source-line="29" id="lnk10"><path codeLine="29" d="M348.9038,736.1812 C346.4938,760.4412 347.47,778.13 355.33,803.53 C358.51,813.8 360.4215,818.8225 366.1915,828.1825" fill="none" id="EntityMention-EntityMentionIdentifier" style="stroke:#181818;stroke-width:1;"/><polygon fill="#181818" points="350.09,724.24,345.5165,729.8152,348.9038,736.1812,353.4773,730.606,350.09,724.24" style="stroke:#181818;stroke-width:1;"/><polygon fill="#181818" points="369.34,833.29,368.0222,823.5297,366.7162,829.0337,361.2122,827.7278,369.34,833.29" style="stroke:#181818;stroke-width:1;"/><text fill="#000000" font-family="sans-serif" font-size="13" lengthAdjust="spacing" textLength="58.3413" x="356.33" y="799.5969">identifier</text><text fill="#000000" font-family="sans-serif" font-size="13" lengthAdjust="spacing" textLength="8.271" x="355.3134" y="822.4652">1</text></g><!--link EntityMentionResolutionResponse to ClusterReference--><g class="link" data-entity-1="ent0005" data-entity-2="ent0011" data-link-type="composition" data-source-line="40" id="lnk13"><path codeLine="40" d="M608.665,735.4306 C597.635,761.1806 595.97,781.12 613.33,803.53 C639.02,836.7 738.8756,857.315 817.5956,869.055" fill="none" id="EntityMentionResolutionResponse-ClusterReference" style="stroke:#181818;stroke-width:1;"/><polygon fill="#181818" points="613.39,724.4,607.3506,728.3403,608.665,735.4306,614.7044,731.4903,613.39,724.4" style="stroke:#181818;stroke-width:1;"/><polygon fill="#181818" points="823.53,869.94,815.2185,864.6562,818.5847,869.2025,814.0384,872.5687,823.53,869.94" style="stroke:#181818;stroke-width:1;"/><text fill="#000000" font-family="sans-serif" font-size="13" lengthAdjust="spacing" textLength="71.3032" x="614.33" y="799.5969">candidates</text><text fill="#000000" font-family="sans-serif" font-size="13" lengthAdjust="spacing" textLength="23.0356" x="793.0924" y="865.5771">1..*</text></g><!--reverse link EREResponse to EntityMentionResolutionResponse--><g class="link" data-entity-1="ent0012" data-entity-2="ent0005" data-link-type="extension" data-source-line="41" id="lnk14"><path codeLine="41" d="M641.33,519.62 C641.33,556.65 641.33,589.67 641.33,626.68" fill="none" id="EREResponse-backto-EntityMentionResolutionResponse" style="stroke:#181818;stroke-width:1;"/><polygon fill="none" points="641.33,501.62,635.33,519.62,647.33,519.62,641.33,501.62" style="stroke:#181818;stroke-width:1;"/></g><!--link EntityMentionResolutionRequest to EntityMention--><g class="link" data-entity-1="ent0015" data-entity-2="ent0006" data-link-type="composition" data-source-line="49" id="lnk16"><path codeLine="49" d="M371.437,529.811 C368.287,564.571 366.0922,588.8645 363.2022,620.7145" fill="none" id="EntityMentionResolutionRequest-EntityMention" style="stroke:#181818;stroke-width:1;"/><polygon fill="#181818" points="372.52,517.86,367.9948,523.4745,371.437,529.811,375.9622,524.1965,372.52,517.86" style="stroke:#181818;stroke-width:1;"/><polygon fill="#181818" points="362.66,626.69,367.4569,618.0883,363.1118,621.7105,359.4897,617.3654,362.66,626.69" style="stroke:#181818;stroke-width:1;"/><text fill="#000000" font-family="sans-serif" font-size="13" lengthAdjust="spacing" textLength="98.0396" x="371.33" y="560.5169">entity_mention</text><text fill="#000000" font-family="sans-serif" font-size="13" lengthAdjust="spacing" textLength="8.271" x="354.726" y="615.8483">1</text></g><!--reverse link ERERequest to EntityMentionResolutionRequest--><g class="link" data-entity-1="ent0017" data-entity-2="ent0015" data-link-type="extension" data-source-line="55" id="lnk18"><path codeLine="55" d="M431.2662,343.2068 C422.1362,361.9168 419.4,367.52 409.61,387.6" fill="none" id="ERERequest-backto-EntityMentionResolutionRequest" style="stroke:#181818;stroke-width:1;"/><polygon fill="none" points="439.16,327.03,425.8739,340.5755,436.6584,345.838,439.16,327.03" style="stroke:#181818;stroke-width:1;"/></g><!--reverse link EREResponse to EREErrorResponse--><g class="link" data-entity-1="ent0012" data-entity-2="ent0019" data-link-type="extension" data-source-line="70" id="lnk21"><path codeLine="70" d="M750.5667,486.6877 C827.1067,511.2877 920.47,545.49 1010.33,594.45 C1015.9,597.48 1021.5,600.77 1027.08,604.21" fill="none" id="EREResponse-backto-EREErrorResponse" style="stroke:#181818;stroke-width:1;"/><polygon fill="none" points="733.43,481.18,748.7307,492.3999,752.4026,480.9755,733.43,481.18" style="stroke:#181818;stroke-width:1;"/></g><!--reverse link EREMessage to EREResponse--><g class="link" data-entity-1="ent0020" data-entity-2="ent0012" data-link-type="extension" data-source-line="71" id="lnk22"><path codeLine="71" d="M565.0519,154.2557 C582.8619,223.6957 611.23,334.32 629.05,403.82" fill="none" id="EREMessage-backto-EREResponse" style="stroke:#181818;stroke-width:1;"/><polygon fill="none" points="560.58,136.82,559.24,155.7463,570.8638,152.765,560.58,136.82" style="stroke:#181818;stroke-width:1;"/></g><!--reverse link EREMessage to ERERequest--><g class="link" data-entity-1="ent0020" data-entity-2="ent0017" data-link-type="extension" data-source-line="72" id="lnk23"><path codeLine="72" d="M519.156,152.975 C506.166,181.435 497.19,201.13 484.17,229.65" fill="none" id="EREMessage-backto-ERERequest" style="stroke:#181818;stroke-width:1;"/><polygon fill="none" points="526.63,136.6,513.6977,150.4836,524.6143,155.4663,526.63,136.6" style="stroke:#181818;stroke-width:1;"/></g><!--link Decision to ClusterReference--><g class="link" data-entity-1="ent0004" data-entity-2="ent0011" data-link-type="composition" data-source-line="73" id="lnk24"><path codeLine="73" d="M998.7559,747.9255 C1028.4159,771.0355 1045.39,784.6 1046.33,786.53 C1060.57,815.82 1040.5869,835.2799 1008.2969,850.6599" fill="none" id="Decision-ClusterReference" style="stroke:#181818;stroke-width:1;"/><polygon fill="#181818" points="989.29,740.55,991.5644,747.393,998.7559,747.9255,996.4814,741.0824,989.29,740.55" style="stroke:#181818;stroke-width:1;"/><polygon fill="#181818" points="1002.88,853.24,1012.7255,852.9811,1007.3941,851.0899,1009.2853,845.7585,1002.88,853.24" style="stroke:#181818;stroke-width:1;"/><text fill="#000000" font-family="sans-serif" font-size="13" lengthAdjust="spacing" textLength="71.3032" x="1051.33" y="799.5969">candidates</text><text fill="#000000" font-family="sans-serif" font-size="13" lengthAdjust="spacing" textLength="23.0356" x="1010.6183" y="847.5377">1..*</text></g><!--link Decision to ClusterReference--><g class="link" data-entity-1="ent0004" data-entity-2="ent0011" data-link-type="composition" data-source-line="74" id="lnk25"><path codeLine="74" d="M905.1743,752.4899 C905.1143,772.6699 905.41,783.04 906.33,803.53 C906.76,813.1 906.9821,817.3515 907.8121,827.1215" fill="none" id="Decision-ClusterReference-1" style="stroke:#181818;stroke-width:1;"/><polygon fill="#181818" points="905.21,740.49,901.1922,746.4781,905.1743,752.4899,909.1921,746.5019,905.21,740.49" style="stroke:#181818;stroke-width:1;"/><polygon fill="#181818" points="908.32,833.1,911.5438,823.7937,907.8968,828.1179,903.5725,824.4709,908.32,833.1" style="stroke:#181818;stroke-width:1;"/><text fill="#000000" font-family="sans-serif" font-size="13" lengthAdjust="spacing" textLength="130.8887" x="907.33" y="799.5969">accepted_candidate</text><text fill="#000000" font-family="sans-serif" font-size="13" lengthAdjust="spacing" textLength="8.271" x="899.128" y="822.6004">1</text></g><?plantuml-src nLSxRzim4DxzAmXDRH2dxPgXG91wAD0ipXYa1asUPG8qgP9KKYFmV-_neQVrS9OcIoJnk-Fnlk-EPoQfjIIxfqehmQXSAIVSyIS7_ByJO3BozFHsHwJE_IeHOS4T2TFAEbCoHmgZNmGNAYUKM4Ut4XeKLMolpStf-PcyBGZ-lQ5FoKy9uJSWjsXbl3bPd1OiXXEZUF0OhSw2mRqT5GfjtPuwaXjT5XQVWL27hhQb0qiK00TEdAxsyj6G5DSXUYP2OT06h9PbU3VmfmJhpkErkZGCDeAtmsq3akK48cwzSSS21i_y0vYm64GyP9uRoAa3OhHswBt0ABs7aEPMn3nPXG14yCbAG_tQODh7eaFcN6bnjGhZCNxeeYWBcpQek_YXYs86C7A-GMvk2ST79mxGmvG57yGCIs1T7nYV2fGUn2pLX7OuZ0XySALHg87jCOXZjLuDfCJpyKby7cNDmARXTWBeuySa7eg8cJrIxm2r8ctWDz4TU2Hw5xvHkNpLHl9aSaseJSNNFkFZm1bzmQ3HcVO6C6FB1JKMwUf5rj7nL1EvMYw_a-pRpSrLDb7TjoJpAdwXCaIhiqMhAfAB6NkwrQNRf5fBIKKtisgwp7lNBmgYx_fIHqt_oofrtClIEZ1hsA7c54iAHzxJkszbbB28yY-lUy7shQQ6qk40XzZqjY2rog_9gt01Wrje9dp9UQPtVdzqIHKdLXo4fCPxi4mZkqC2YhjETBV6wIPuGTnEQgpkNfkfDpk3dHPqYwwnnM3grgjEeQzz4unvmhFL8YHKoY3xgkOj2Py_lE0lrbiiY7FgKI8CoH7Ug_KYQoVazt8vtnzd-sWuubGR3O2OK4nwIkXrTVlwXFXloJ98Bjg_01z8EtQgGliMqcZ9jbBxz1LJyTnbuYz2-NiiFfRQbD2H1Z3GFxA-uXjAvWKViBPFpuVflHN-j3mZg5RdUhKoHfjkjLStUA-OiUE1mb4CDmLlz0KL0aMy8XbEFTQtH1m_KMeChArcfR3ZG6A2ZyaxCI64apCG3bWISiOD4Ztgvd-Gr17R0oQ8vgtkMgtwR7ObrypKJ1yESNchyLgfHUYl4KINqjaH0LvsiDbJ3UkksnVxYbfqZbjXPfUJJiy7a4jRzj3aCcX5cLUnxtELULqUToKNxfVEOvlsBmH9GgKXCUP8TjhKqtwQpUrxXduqqMPYCOvuOT_1GL_WRq3gh_mfYclGnF2mfoe7ExeyydlYz0y0?></g></svg>