<?plantuml 1.2026.1?><svg xmlns="http://www.w3.org/2000/svg" xmlns:xlink="http://www.w3.org/1999/xlink" contentStyleType="text/css" data-diagram-type="CLASS" height="872px" preserveAspectRatio="none" style="width:1566px;height:872px;background:#FFFFFF;" version="1.1" viewBox="0 0 1566 872" width="1566px" zoomAndPan="magnify"><defs/><g><!--class UserAction--><g class="entity" data-qualified-name="UserAction" data-source-line="1" id="ent0002"><a href="" target="_top" title="Immutable record of a curator action on an entity mention resolution." xlink:actuate="onRequest" xlink:href="" xlink:show="new" xlink:title="Immutable record of a curator action on an entity mention resolution." xlink:type="simple"><rect fill="#F1F1F1" height="129.4844" rx="2.5" ry="2.5" style="stroke:#181818;stroke-width:0.5;" width="217.3242" x="322.79" y="561.86"/><ellipse cx="389.2011" cy="577.86" fill="#ADD1B2" rx="11" ry="11" style="stroke:#181818;stroke-width:1;"/><path d="M392.1699,583.5006 Q391.5918,583.7975 390.9511,583.9381 Q390.3105,584.0944 389.6074,584.0944 Q387.1074,584.0944 385.7793,582.4538 Q384.4668,580.7975 384.4668,577.6725 Q384.4668,574.5475 385.7793,572.8913 Q387.1074,571.235 389.6074,571.235 Q390.3105,571.235 390.9511,571.3913 Q391.6074,571.5475 392.1699,571.8444 L392.1699,574.5631 Q391.5449,573.985 390.9511,573.7194 Q390.3574,573.4381 389.7324,573.4381 Q388.3886,573.4381 387.7011,574.5163 Q387.0136,575.5788 387.0136,577.6725 Q387.0136,579.7663 387.7011,580.8444 Q388.3886,581.9069 389.7324,581.9069 Q390.3574,581.9069 390.9511,581.6413 Q391.5449,581.36 392.1699,580.7819 L392.1699,583.5006 Z " fill="#000000"/><text fill="#000000" font-family="sans-serif" font-size="14" lengthAdjust="spacing" textLength="76.002" x="409.7011" y="582.7067">UserAction</text><line style="stroke:#181818;stroke-width:0.5;" x1="323.79" x2="539.1142" y1="593.86" y2="593.86"/><text fill="#000000" font-family="sans-serif" font-size="14" lengthAdjust="spacing" textLength="66.582" x="328.79" y="610.8551">id : string</text><text fill="#000000" font-family="sans-serif" font-size="14" lengthAdjust="spacing" textLength="205.3242" x="328.79" y="627.152">action_type : UserActionType</text><text fill="#000000" font-family="sans-serif" font-size="14" lengthAdjust="spacing" textLength="89.8926" x="328.79" y="643.4489">actor : string</text><text fill="#000000" font-family="sans-serif" font-size="14" lengthAdjust="spacing" textLength="151.5186" x="328.79" y="659.7457">created_at : datetime</text><text fill="#000000" font-family="sans-serif" font-size="14" lengthAdjust="spacing" textLength="121.6592" x="328.79" y="676.0426">metadata : string</text><line style="stroke:#181818;stroke-width:0.5;" x1="323.79" x2="539.1142" y1="683.3444" y2="683.3444"/></a></g><!--class ClusterReference--><g class="entity" data-qualified-name="ClusterReference" data-source-line="8" id="ent0003"><a href="" target="_top" title="A reference to a cluster to which an entity is deemed to belong, with an associated confidence and similarity scores." xlink:actuate="onRequest" xlink:href="" xlink:show="new" xlink:title="A reference to a cluster to which an entity is deemed to belong, with an associated confidence and similarity scores." xlink:type="simple"><rect fill="#F1F1F1" height="96.8906" rx="2.5" ry="2.5" style="stroke:#181818;stroke-width:0.5;" width="178.6328" x="195.13" y="768.34"/><ellipse cx="221.6081" cy="784.34" fill="#ADD1B2" rx="11" ry="11" style="stroke:#181818;stroke-width:1;"/><path d="M224.5768,789.9806 Q223.9987,790.2775 223.3581,790.4181 Q222.7175,790.5744 222.0143,790.5744 Q219.5143,790.5744 218.1862,788.9338 Q216.8737,787.2775 216.8737,784.1525 Q216.8737,781.0275 218.1862,779.3713 Q219.5143,777.715 222.0143,777.715 Q222.7175,777.715 223.3581,777.8713 Q224.0143,778.0275 224.5768,778.3244 L224.5768,781.0431 Q223.9518,780.465 223.3581,780.1994 Q222.7643,779.9181 222.1393,779.9181 Q220.7956,779.9181 220.1081,780.9963 Q219.4206,782.0588 219.4206,784.1525 Q219.4206,786.2463 220.1081,787.3244 Q220.7956,788.3869 222.1393,788.3869 Q222.7643,788.3869 223.3581,788.1213 Q223.9518,787.84 224.5768,787.2619 L224.5768,789.9806 Z " fill="#000000"/><text fill="#000000" font-family="sans-serif" font-size="14" lengthAdjust="spacing" textLength="121.126" x="238.1588" y="789.1867">ClusterReference</text><line style="stroke:#181818;stroke-width:0.5;" x1="196.13" x2="372.7628" y1="800.34" y2="800.34"/><text fill="#000000" font-family="sans-serif" font-size="14" lengthAdjust="spacing" textLength="121.1943" x="201.13" y="817.3351">cluster_id : string</text><text fill="#000000" font-family="sans-serif" font-size="14" lengthAdjust="spacing" textLength="166.6328" x="201.13" y="833.632">confidence_score : float</text><text fill="#000000" font-family="sans-serif" font-size="14" lengthAdjust="spacing" textLength="154.5947" x="201.13" y="849.9289">similarity_score : float</text><line style="stroke:#181818;stroke-width:0.5;" x1="196.13" x2="372.7628" y1="857.2306" y2="857.2306"/></a></g><!--class EntityMentionIdentifier--><g class="entity" data-qualified-name="EntityMentionIdentifier" data-source-line="13" id="ent0004"><a href="" target="_top" title="A container that groups the attributes needed to identify an entity mention in a resolution request" xlink:actuate="onRequest" xlink:href="" xlink:show="new" xlink:title="A container that groups the attributes needed to identify an entity mention in a resolution request" xlink:type="simple"><rect fill="#F1F1F1" height="96.8906" rx="2.5" ry="2.5" style="stroke:#181818;stroke-width:0.5;" width="192.3232" x="929.29" y="768.34"/><ellipse cx="944.29" cy="784.34" fill="#ADD1B2" rx="11" ry="11" style="stroke:#181818;stroke-width:1;"/><path d="M947.2588,789.9806 Q946.6806,790.2775 946.04,790.4181 Q945.3994,790.5744 944.6963,790.5744 Q942.1963,790.5744 940.8681,788.9338 Q939.5556,787.2775 939.5556,784.1525 Q939.5556,781.0275 940.8681,779.3713 Q942.1963,777.715 944.6963,777.715 Q945.3994,777.715 946.04,777.8713 Q946.6963,778.0275 947.2588,778.3244 L947.2588,781.0431 Q946.6338,780.465 946.04,780.1994 Q945.4463,779.9181 944.8213,779.9181 Q943.4775,779.9181 942.79,780.9963 Q942.1025,782.0588 942.1025,784.1525 Q942.1025,786.2463 942.79,787.3244 Q943.4775,788.3869 944.8213,788.3869 Q945.4463,788.3869 946.04,788.1213 Q946.6338,787.84 947.2588,787.2619 L947.2588,789.9806 Z " fill="#000000"/><text fill="#000000" font-family="sans-serif" font-size="14" lengthAdjust="spacing" textLength="160.3232" x="958.29" y="789.1867">EntityMentionIdentifier</text><line style="stroke:#181818;stroke-width:0.5;" x1="930.29" x2="1120.6132" y1="800.34" y2="800.34"/><text fill="#000000" font-family="sans-serif" font-size="14" lengthAdjust="spacing" textLength="120.3809" x="935.29" y="817.3351">source_id : string</text><text fill="#000000" font-family="sans-serif" font-size="14" lengthAdjust="spacing" textLength="127.1074" x="935.29" y="833.632">request_id : string</text><text fill="#000000" font-family="sans-serif" font-size="14" lengthAdjust="spacing" textLength="132.7197" x="935.29" y="849.9289">entity_type : string</text><line style="stroke:#181818;stroke-width:0.5;" x1="930.29" x2="1120.6132" y1="857.2306" y2="857.2306"/></a></g><!--class LookupState--><g class="entity" data-qualified-name="LookupState" data-source-line="21" id="ent0008"><a href="" target="_top" title="Tracks the resolution state for entity mentions from a particular source." xlink:actuate="onRequest" xlink:href="" xlink:show="new" xlink:title="Tracks the resolution state for entity mentions from a particular source." xlink:type="simple"><rect fill="#F1F1F1" height="80.5938" rx="2.5" ry="2.5" style="stroke:#181818;stroke-width:0.5;" width="184.9219" x="1374.99" y="15.14"/><ellipse cx="1419.2732" cy="31.14" fill="#ADD1B2" rx="11" ry="11" style="stroke:#181818;stroke-width:1;"/><path d="M1422.242,36.7806 Q1421.6638,37.0775 1421.0232,37.2181 Q1420.3826,37.3744 1419.6795,37.3744 Q1417.1795,37.3744 1415.8513,35.7337 Q1414.5388,34.0775 1414.5388,30.9525 Q1414.5388,27.8275 1415.8513,26.1712 Q1417.1795,24.515 1419.6795,24.515 Q1420.3826,24.515 1421.0232,24.6712 Q1421.6795,24.8275 1422.242,25.1244 L1422.242,27.8431 Q1421.617,27.265 1421.0232,26.9994 Q1420.4295,26.7181 1419.8045,26.7181 Q1418.4607,26.7181 1417.7732,27.7962 Q1417.0857,28.8587 1417.0857,30.9525 Q1417.0857,33.0462 1417.7732,34.1244 Q1418.4607,35.1869 1419.8045,35.1869 Q1420.4295,35.1869 1421.0232,34.9212 Q1421.617,34.64 1422.242,34.0619 L1422.242,36.7806 Z " fill="#000000"/><text fill="#000000" font-family="sans-serif" font-size="14" lengthAdjust="spacing" textLength="87.8555" x="1439.7732" y="35.9867">LookupState</text><line style="stroke:#181818;stroke-width:0.5;" x1="1375.99" x2="1558.9119" y1="47.14" y2="47.14"/><text fill="#000000" font-family="sans-serif" font-size="14" lengthAdjust="spacing" textLength="120.3809" x="1380.99" y="64.1351">source_id : string</text><text fill="#000000" font-family="sans-serif" font-size="14" lengthAdjust="spacing" textLength="172.9219" x="1380.99" y="80.432">last_snapshot : datetime</text><line style="stroke:#181818;stroke-width:0.5;" x1="1375.99" x2="1558.9119" y1="87.7337" y2="87.7337"/></a></g><!--class CanonicalEntityIdentifier--><g class="entity" data-qualified-name="CanonicalEntityIdentifier" data-source-line="25" id="ent0009"><a href="" target="_top" title="A logical identity construct providing a stable identity anchor." xlink:actuate="onRequest" xlink:href="" xlink:show="new" xlink:title="A logical identity construct providing a stable identity anchor." xlink:type="simple"><rect fill="#F1F1F1" height="64.2969" rx="2.5" ry="2.5" style="stroke:#181818;stroke-width:0.5;" width="204.6621" x="1082.12" y="594.45"/><ellipse cx="1097.12" cy="610.45" fill="#ADD1B2" rx="11" ry="11" style="stroke:#181818;stroke-width:1;"/><path d="M1100.0888,616.0906 Q1099.5106,616.3875 1098.87,616.5281 Q1098.2294,616.6844 1097.5263,616.6844 Q1095.0263,616.6844 1093.6981,615.0438 Q1092.3856,613.3875 1092.3856,610.2625 Q1092.3856,607.1375 1093.6981,605.4813 Q1095.0263,603.825 1097.5263,603.825 Q1098.2294,603.825 1098.87,603.9813 Q1099.5263,604.1375 1100.0888,604.4344 L1100.0888,607.1531 Q1099.4638,606.575 1098.87,606.3094 Q1098.2763,606.0281 1097.6513,606.0281 Q1096.3075,606.0281 1095.62,607.1063 Q1094.9325,608.1688 1094.9325,610.2625 Q1094.9325,612.3563 1095.62,613.4344 Q1096.3075,614.4969 1097.6513,614.4969 Q1098.2763,614.4969 1098.87,614.2313 Q1099.4638,613.95 1100.0888,613.3719 L1100.0888,616.0906 Z " fill="#000000"/><text fill="#000000" font-family="sans-serif" font-size="14" lengthAdjust="spacing" textLength="172.6621" x="1111.12" y="615.2967">CanonicalEntityIdentifier</text><line style="stroke:#181818;stroke-width:0.5;" x1="1083.12" x2="1285.7821" y1="626.45" y2="626.45"/><text fill="#000000" font-family="sans-serif" font-size="14" lengthAdjust="spacing" textLength="116.6348" x="1088.12" y="643.4451">identifier : string</text><line style="stroke:#181818;stroke-width:0.5;" x1="1083.12" x2="1285.7821" y1="650.7469" y2="650.7469"/></a></g><!--class Decision--><g class="entity" data-qualified-name="Decision" data-source-line="28" id="ent0010"><a href="" target="_top" title="Canonical placement of an entity mention to a cluster." xlink:actuate="onRequest" xlink:href="" xlink:show="new" xlink:title="Canonical placement of an entity mention to a cluster." xlink:type="simple"><rect fill="#F1F1F1" height="96.8906" rx="2.5" ry="2.5" style="stroke:#181818;stroke-width:0.5;" width="168.0986" x="87.4" y="578.15"/><ellipse cx="137.398" cy="594.15" fill="#ADD1B2" rx="11" ry="11" style="stroke:#181818;stroke-width:1;"/><path d="M140.3668,599.7906 Q139.7887,600.0875 139.148,600.2281 Q138.5074,600.3844 137.8043,600.3844 Q135.3043,600.3844 133.9762,598.7438 Q132.6637,597.0875 132.6637,593.9625 Q132.6637,590.8375 133.9762,589.1813 Q135.3043,587.525 137.8043,587.525 Q138.5074,587.525 139.148,587.6813 Q139.8043,587.8375 140.3668,588.1344 L140.3668,590.8531 Q139.7418,590.275 139.148,590.0094 Q138.5543,589.7281 137.9293,589.7281 Q136.5855,589.7281 135.898,590.8063 Q135.2105,591.8688 135.2105,593.9625 Q135.2105,596.0563 135.898,597.1344 Q136.5855,598.1969 137.9293,598.1969 Q138.5543,598.1969 139.148,597.9313 Q139.7418,597.65 140.3668,597.0719 L140.3668,599.7906 Z " fill="#000000"/><text fill="#000000" font-family="sans-serif" font-size="14" lengthAdjust="spacing" textLength="59.6025" x="157.898" y="598.9967">Decision</text><line style="stroke:#181818;stroke-width:0.5;" x1="88.4" x2="254.4986" y1="610.15" y2="610.15"/><text fill="#000000" font-family="sans-serif" font-size="14" lengthAdjust="spacing" textLength="66.582" x="93.4" y="627.1451">id : string</text><text fill="#000000" font-family="sans-serif" font-size="14" lengthAdjust="spacing" textLength="151.5186" x="93.4" y="643.442">created_at : datetime</text><text fill="#000000" font-family="sans-serif" font-size="14" lengthAdjust="spacing" textLength="156.0986" x="93.4" y="659.7389">updated_at : datetime</text><line style="stroke:#181818;stroke-width:0.5;" x1="88.4" x2="254.4986" y1="667.0406" y2="667.0406"/></a></g><!--class EntityMentionResolutionResponse--><g class="entity" data-qualified-name="EntityMentionResolutionResponse" data-source-line="33" id="ent0011"><a href="" target="_top" title="An entity resolution response returned by the ERE." xlink:actuate="onRequest" xlink:href="" xlink:show="new" xlink:title="An entity resolution response returned by the ERE." xlink:type="simple"><rect fill="#F1F1F1" height="96.8906" rx="2.5" ry="2.5" style="stroke:#181818;stroke-width:0.5;" width="270.9023" x="776" y="578.15"/><ellipse cx="791" cy="594.15" fill="#ADD1B2" rx="11" ry="11" style="stroke:#181818;stroke-width:1;"/><path d="M793.9688,599.7906 Q793.3906,600.0875 792.75,600.2281 Q792.1094,600.3844 791.4063,600.3844 Q788.9063,600.3844 787.5781,598.7438 Q786.2656,597.0875 786.2656,593.9625 Q786.2656,590.8375 787.5781,589.1813 Q788.9063,587.525 791.4063,587.525 Q792.1094,587.525 792.75,587.6813 Q793.4063,587.8375 793.9688,588.1344 L793.9688,590.8531 Q793.3438,590.275 792.75,590.0094 Q792.1563,589.7281 791.5313,589.7281 Q790.1875,589.7281 789.5,590.8063 Q788.8125,591.8688 788.8125,593.9625 Q788.8125,596.0563 789.5,597.1344 Q790.1875,598.1969 791.5313,598.1969 Q792.1563,598.1969 792.75,597.9313 Q793.3438,597.65 793.9688,597.0719 L793.9688,599.7906 Z " fill="#000000"/><text fill="#000000" font-family="sans-serif" font-size="14" lengthAdjust="spacing" textLength="238.9023" x="805" y="598.9967">EntityMentionResolutionResponse</text><line style="stroke:#181818;stroke-width:0.5;" x1="777" x2="1045.9023" y1="610.15" y2="610.15"/><text fill="#000000" font-family="sans-serif" font-size="14" lengthAdjust="spacing" textLength="99.8936" x="782" y="627.1451">type(i) : string</text><text fill="#000000" font-family="sans-serif" font-size="14" lengthAdjust="spacing" textLength="171.9033" x="782" y="643.442">ere_request_id(i) : string</text><text fill="#000000" font-family="sans-serif" font-size="14" lengthAdjust="spacing" textLength="167.1455" x="782" y="659.7389">timestamp(i) : datetime</text><line style="stroke:#181818;stroke-width:0.5;" x1="777" x2="1045.9023" y1="667.0406" y2="667.0406"/></a></g><!--class EntityMention--><g class="entity" data-qualified-name="EntityMention" data-source-line="38" id="ent0012"><a href="" target="_top" title="An entity mention is a representation of a real-world entity, as provided by the ERS." xlink:actuate="onRequest" xlink:href="" xlink:show="new" xlink:title="An entity mention is a representation of a real-world entity, as provided by the ERS." xlink:type="simple"><rect fill="#F1F1F1" height="113.1875" rx="2.5" ry="2.5" style="stroke:#181818;stroke-width:0.5;" width="224.1123" x="1321.39" y="570"/><ellipse cx="1380.5687" cy="586" fill="#ADD1B2" rx="11" ry="11" style="stroke:#181818;stroke-width:1;"/><path d="M1383.5375,591.6406 Q1382.9593,591.9375 1382.3187,592.0781 Q1381.6781,592.2344 1380.975,592.2344 Q1378.475,592.2344 1377.1468,590.5938 Q1375.8343,588.9375 1375.8343,585.8125 Q1375.8343,582.6875 1377.1468,581.0313 Q1378.475,579.375 1380.975,579.375 Q1381.6781,579.375 1382.3187,579.5313 Q1382.975,579.6875 1383.5375,579.9844 L1383.5375,582.7031 Q1382.9125,582.125 1382.3187,581.8594 Q1381.725,581.5781 1381.1,581.5781 Q1379.7562,581.5781 1379.0687,582.6563 Q1378.3812,583.7188 1378.3812,585.8125 Q1378.3812,587.9063 1379.0687,588.9844 Q1379.7562,590.0469 1381.1,590.0469 Q1381.725,590.0469 1382.3187,589.7813 Q1382.9125,589.5 1383.5375,588.9219 L1383.5375,591.6406 Z " fill="#000000"/><text fill="#000000" font-family="sans-serif" font-size="14" lengthAdjust="spacing" textLength="97.2549" x="1401.0687" y="590.8467">EntityMention</text><line style="stroke:#181818;stroke-width:0.5;" x1="1322.39" x2="1544.5023" y1="602" y2="602"/><text fill="#000000" font-family="sans-serif" font-size="14" lengthAdjust="spacing" textLength="145.6807" x="1327.39" y="618.9951">content_type : string</text><text fill="#000000" font-family="sans-serif" font-size="14" lengthAdjust="spacing" textLength="107.4063" x="1327.39" y="635.292">content : string</text><text fill="#000000" font-family="sans-serif" font-size="14" lengthAdjust="spacing" textLength="212.1123" x="1327.39" y="651.5889">parsed_representation : string</text><text fill="#000000" font-family="sans-serif" font-size="14" lengthAdjust="spacing" textLength="106.8184" x="1327.39" y="667.8857">context : string</text><line style="stroke:#181818;stroke-width:0.5;" x1="1322.39" x2="1544.5023" y1="675.1875" y2="675.1875"/></a></g><!--class EREResponse--><g class="entity" data-qualified-name="EREResponse" data-source-line="48" id="ent0017"><a href="" target="_top" title="Root class to represent all the responses sent by the ERE." xlink:actuate="onRequest" xlink:href="" xlink:show="new" xlink:title="Root class to represent all the responses sent by the ERE." xlink:type="simple"><rect fill="#F1F1F1" height="96.8906" rx="2.5" ry="2.5" style="stroke:#181818;stroke-width:0.5;" width="183.9033" x="1054.5" y="164.89"/><ellipse cx="1094.9777" cy="180.89" fill="#A9DCDF" rx="11" ry="11" style="stroke:#181818;stroke-width:1;"/><path d="M1095.0871,176.2338 L1093.9309,181.3119 L1096.259,181.3119 L1095.0871,176.2338 Z M1093.6027,173.9994 L1096.5871,173.9994 L1099.9465,186.39 L1097.4934,186.39 L1096.7277,183.3275 L1093.4465,183.3275 L1092.6965,186.39 L1090.259,186.39 L1093.6027,173.9994 Z " fill="#000000"/><text fill="#000000" font-family="sans-serif" font-size="14" font-style="italic" lengthAdjust="spacing" textLength="95.2861" x="1114.6395" y="185.7367">EREResponse</text><line style="stroke:#181818;stroke-width:0.5;" x1="1055.5" x2="1237.4033" y1="196.89" y2="196.89"/><text fill="#000000" font-family="sans-serif" font-size="14" lengthAdjust="spacing" textLength="99.8936" x="1060.5" y="213.8851">type(i) : string</text><text fill="#000000" font-family="sans-serif" font-size="14" lengthAdjust="spacing" textLength="171.9033" x="1060.5" y="230.182">ere_request_id(i) : string</text><text fill="#000000" font-family="sans-serif" font-size="14" lengthAdjust="spacing" textLength="167.1455" x="1060.5" y="246.4789">timestamp(i) : datetime</text><line style="stroke:#181818;stroke-width:0.5;" x1="1055.5" x2="1237.4033" y1="253.7806" y2="253.7806"/></a></g><!--class EntityMentionResolutionRequest--><g class="entity" data-qualified-name="EntityMentionResolutionRequest" data-source-line="55" id="ent0020"><a href="" target="_top" title="An entity resolution request sent to the ERE, containing the entity to be resolved." xlink:actuate="onRequest" xlink:href="" xlink:show="new" xlink:title="An entity resolution request sent to the ERE, containing the entity to be resolved." xlink:type="simple"><rect fill="#F1F1F1" height="129.4844" rx="2.5" ry="2.5" style="stroke:#181818;stroke-width:0.5;" width="260.5322" x="1288.18" y="339.07"/><ellipse cx="1303.18" cy="355.07" fill="#ADD1B2" rx="11" ry="11" style="stroke:#181818;stroke-width:1;"/><path d="M1306.1488,360.7106 Q1305.5706,361.0075 1304.93,361.1481 Q1304.2894,361.3044 1303.5863,361.3044 Q1301.0863,361.3044 1299.7581,359.6638 Q1298.4456,358.0075 1298.4456,354.8825 Q1298.4456,351.7575 1299.7581,350.1013 Q1301.0863,348.445 1303.5863,348.445 Q1304.2894,348.445 1304.93,348.6013 Q1305.5863,348.7575 1306.1488,349.0544 L1306.1488,351.7731 Q1305.5238,351.195 1304.93,350.9294 Q1304.3363,350.6481 1303.7113,350.6481 Q1302.3675,350.6481 1301.68,351.7263 Q1300.9925,352.7888 1300.9925,354.8825 Q1300.9925,356.9763 1301.68,358.0544 Q1302.3675,359.1169 1303.7113,359.1169 Q1304.3363,359.1169 1304.93,358.8513 Q1305.5238,358.57 1306.1488,357.9919 L1306.1488,360.7106 Z " fill="#000000"/><text fill="#000000" font-family="sans-serif" font-size="14" lengthAdjust="spacing" textLength="228.5322" x="1317.18" y="359.9167">EntityMentionResolutionRequest</text><line style="stroke:#181818;stroke-width:0.5;" x1="1289.18" x2="1547.7122" y1="371.07" y2="371.07"/><text fill="#000000" font-family="sans-serif" font-size="14" lengthAdjust="spacing" textLength="245.5742" x="1294.18" y="388.0651">proposed_cluster_ids : string  [0..*]</text><text fill="#000000" font-family="sans-serif" font-size="14" lengthAdjust="spacing" textLength="243.8652" x="1294.18" y="404.362">excluded_cluster_ids : string  [0..*]</text><text fill="#000000" font-family="sans-serif" font-size="14" lengthAdjust="spacing" textLength="99.8936" x="1294.18" y="420.6589">type(i) : string</text><text fill="#000000" font-family="sans-serif" font-size="14" lengthAdjust="spacing" textLength="171.9033" x="1294.18" y="436.9557">ere_request_id(i) : string</text><text fill="#000000" font-family="sans-serif" font-size="14" lengthAdjust="spacing" textLength="167.1455" x="1294.18" y="453.2526">timestamp(i) : datetime</text><line style="stroke:#181818;stroke-width:0.5;" x1="1289.18" x2="1547.7122" y1="460.5544" y2="460.5544"/></a></g><!--class ERERequest--><g class="entity" data-qualified-name="ERERequest" data-source-line="63" id="ent0022"><a href="" target="_top" title="Root class to represent all the requests sent to the ERE." xlink:actuate="onRequest" xlink:href="" xlink:show="new" xlink:title="Root class to represent all the requests sent to the ERE." xlink:type="simple"><rect fill="#F1F1F1" height="96.8906" rx="2.5" ry="2.5" style="stroke:#181818;stroke-width:0.5;" width="183.9033" x="1299.5" y="164.89"/><ellipse cx="1344.7437" cy="180.89" fill="#A9DCDF" rx="11" ry="11" style="stroke:#181818;stroke-width:1;"/><path d="M1344.853,176.2338 L1343.6968,181.3119 L1346.0249,181.3119 L1344.853,176.2338 Z M1343.3687,173.9994 L1346.353,173.9994 L1349.7124,186.39 L1347.2593,186.39 L1346.4937,183.3275 L1343.2124,183.3275 L1342.4624,186.39 L1340.0249,186.39 L1343.3687,173.9994 Z " fill="#000000"/><text fill="#000000" font-family="sans-serif" font-size="14" font-style="italic" lengthAdjust="spacing" textLength="84.916" x="1365.2437" y="185.7367">ERERequest</text><line style="stroke:#181818;stroke-width:0.5;" x1="1300.5" x2="1482.4033" y1="196.89" y2="196.89"/><text fill="#000000" font-family="sans-serif" font-size="14" lengthAdjust="spacing" textLength="99.8936" x="1305.5" y="213.8851">type(i) : string</text><text fill="#000000" font-family="sans-serif" font-size="14" lengthAdjust="spacing" textLength="171.9033" x="1305.5" y="230.182">ere_request_id(i) : string</text><text fill="#000000" font-family="sans-serif" font-size="14" lengthAdjust="spacing" textLength="167.1455" x="1305.5" y="246.4789">timestamp(i) : datetime</text><line style="stroke:#181818;stroke-width:0.5;" x1="1300.5" x2="1482.4033" y1="253.7806" y2="253.7806"/></a></g><!--class EREErrorResponse--><g class="entity" data-qualified-name="EREErrorResponse" data-source-line="69" id="ent0024"><a href="" target="_top" title="Response sent by the ERE when some error/exception occurs while processing a request." xlink:actuate="onRequest" xlink:href="" xlink:show="new" xlink:title="Response sent by the ERE when some error/exception occurs while processing a request." xlink:type="simple"><rect fill="#F1F1F1" height="162.0781" rx="2.5" ry="2.5" style="stroke:#181818;stroke-width:0.5;" width="183.9033" x="1054.5" y="322.78"/><ellipse cx="1079.3723" cy="338.78" fill="#ADD1B2" rx="11" ry="11" style="stroke:#181818;stroke-width:1;"/><path d="M1082.3411,344.4206 Q1081.7629,344.7175 1081.1223,344.8581 Q1080.4817,345.0144 1079.7786,345.0144 Q1077.2786,345.0144 1075.9504,343.3738 Q1074.6379,341.7175 1074.6379,338.5925 Q1074.6379,335.4675 1075.9504,333.8113 Q1077.2786,332.155 1079.7786,332.155 Q1080.4817,332.155 1081.1223,332.3113 Q1081.7786,332.4675 1082.3411,332.7644 L1082.3411,335.4831 Q1081.7161,334.905 1081.1223,334.6394 Q1080.5286,334.3581 1079.9036,334.3581 Q1078.5598,334.3581 1077.8723,335.4363 Q1077.1848,336.4988 1077.1848,338.5925 Q1077.1848,340.6863 1077.8723,341.7644 Q1078.5598,342.8269 1079.9036,342.8269 Q1080.5286,342.8269 1081.1223,342.5613 Q1081.7161,342.28 1082.3411,341.7019 L1082.3411,344.4206 Z " fill="#000000"/><text fill="#000000" font-family="sans-serif" font-size="14" lengthAdjust="spacing" textLength="129.9648" x="1095.5662" y="343.6267">EREErrorResponse</text><line style="stroke:#181818;stroke-width:0.5;" x1="1055.5" x2="1237.4033" y1="354.78" y2="354.78"/><text fill="#000000" font-family="sans-serif" font-size="14" lengthAdjust="spacing" textLength="126.5264" x="1060.5" y="371.7751">error_type : string</text><text fill="#000000" font-family="sans-serif" font-size="14" lengthAdjust="spacing" textLength="122.623" x="1060.5" y="388.072">error_title : string</text><text fill="#000000" font-family="sans-serif" font-size="14" lengthAdjust="spacing" textLength="134.5996" x="1060.5" y="404.3689">error_detail : string</text><text fill="#000000" font-family="sans-serif" font-size="14" lengthAdjust="spacing" textLength="131.3867" x="1060.5" y="420.6657">error_trace : string</text><text fill="#000000" font-family="sans-serif" font-size="14" lengthAdjust="spacing" textLength="99.8936" x="1060.5" y="436.9626">type(i) : string</text><text fill="#000000" font-family="sans-serif" font-size="14" lengthAdjust="spacing" textLength="171.9033" x="1060.5" y="453.2595">ere_request_id(i) : string</text><text fill="#000000" font-family="sans-serif" font-size="14" lengthAdjust="spacing" textLength="167.1455" x="1060.5" y="469.5564">timestamp(i) : datetime</text><line style="stroke:#181818;stroke-width:0.5;" x1="1055.5" x2="1237.4033" y1="476.8581" y2="476.8581"/></a></g><!--class EREMessage--><g class="entity" data-qualified-name="EREMessage" data-source-line="78" id="ent0025"><a href="" target="_top" title="Root abstraction to represent attributes common to both requests and results." xlink:actuate="onRequest" xlink:href="" xlink:show="new" xlink:title="Root abstraction to represent attributes common to both requests and results." xlink:type="simple"><rect fill="#F1F1F1" height="96.8906" rx="2.5" ry="2.5" style="stroke:#181818;stroke-width:0.5;" width="169.0898" x="1170.9" y="7"/><ellipse cx="1207.6402" cy="23" fill="#A9DCDF" rx="11" ry="11" style="stroke:#181818;stroke-width:1;"/><path d="M1207.7496,18.3438 L1206.5933,23.4219 L1208.9214,23.4219 L1207.7496,18.3438 Z M1206.2652,16.1094 L1209.2496,16.1094 L1212.6089,28.5 L1210.1558,28.5 L1209.3902,25.4375 L1206.1089,25.4375 L1205.3589,28.5 L1202.9214,28.5 L1206.2652,16.1094 Z " fill="#000000"/><text fill="#000000" font-family="sans-serif" font-size="14" font-style="italic" lengthAdjust="spacing" textLength="88.7783" x="1226.4713" y="27.8467">EREMessage</text><line style="stroke:#181818;stroke-width:0.5;" x1="1171.9" x2="1338.9898" y1="39" y2="39"/><text fill="#000000" font-family="sans-serif" font-size="14" lengthAdjust="spacing" textLength="85.0801" x="1176.9" y="55.9951">type : string</text><text fill="#000000" font-family="sans-serif" font-size="14" lengthAdjust="spacing" textLength="157.0898" x="1176.9" y="72.292">ere_request_id : string</text><text fill="#000000" font-family="sans-serif" font-size="14" lengthAdjust="spacing" textLength="152.332" x="1176.9" y="88.5889">timestamp : datetime</text><line style="stroke:#181818;stroke-width:0.5;" x1="1171.9" x2="1338.9898" y1="95.8906" y2="95.8906"/></a></g><!--link UserAction to ClusterReference--><g class="link" data-entity-1="ent0002" data-entity-2="ent0003" data-link-type="composition" data-source-line="18" id="lnk5"><path codeLine="18" d="M312.8278,683.7269 C296.3678,695.9569 291.27,703.61 281.45,721.34 C273.73,735.26 271.8454,746.2072 273.0354,761.8672" fill="none" id="UserAction-ClusterReference" style="stroke:#181818;stroke-width:1;"/><polygon fill="#181818" points="322.46,676.57,315.2583,676.9377,312.8278,683.7269,320.0295,683.3592,322.46,676.57" style="stroke:#181818;stroke-width:1;"/><polygon fill="#181818" points="273.49,767.85,276.7966,758.5728,273.1111,762.8644,268.8196,759.179,273.49,767.85" style="stroke:#181818;stroke-width:1;"/><text fill="#000000" font-family="sans-serif" font-size="13" lengthAdjust="spacing" textLength="105.5869" x="282.45" y="734.4069">selected_cluster</text><text fill="#000000" font-family="sans-serif" font-size="13" lengthAdjust="spacing" textLength="24.8066" x="246.4594" y="757.3423">0..1</text></g><!--link UserAction to ClusterReference--><g class="link" data-entity-1="ent0002" data-entity-2="ent0003" data-link-type="composition" data-source-line="19" id="lnk6"><path codeLine="19" d="M412.3009,702.8705 C406.5409,719.1205 402.79,724.56 392.45,738.34 C384.35,749.14 378.9261,755.207 368.2561,764.067" fill="none" id="UserAction-ClusterReference-1" style="stroke:#181818;stroke-width:1;"/><polygon fill="#181818" points="416.31,691.56,410.5353,695.8789,412.3009,702.8705,418.0756,698.5516,416.31,691.56" style="stroke:#181818;stroke-width:1;"/><polygon fill="#181818" points="363.64,767.9,373.1194,765.2278,367.4867,764.7058,368.0087,759.0731,363.64,767.9" style="stroke:#181818;stroke-width:1;"/><text fill="#000000" font-family="sans-serif" font-size="13" lengthAdjust="spacing" textLength="71.3032" x="404.45" y="734.4069">candidates</text><text fill="#000000" font-family="sans-serif" font-size="13" lengthAdjust="spacing" textLength="23.0356" x="349.7387" y="757.399">1..*</text></g><!--link UserAction to EntityMentionIdentifier--><g class="link" data-entity-1="ent0002" data-entity-2="ent0004" data-link-type="composition" data-source-line="20" id="lnk7"><path codeLine="20" d="M551.8919,668.7352 C598.1819,685.1252 641.17,701.22 689.45,721.34 C705.78,728.15 708.81,732.32 725.45,738.34 C791.97,762.39 863.4596,780.8384 922.9496,794.3784" fill="none" id="UserAction-EntityMentionIdentifier" style="stroke:#181818;stroke-width:1;"/><polygon fill="#181818" points="540.58,664.73,544.9009,670.5032,551.8919,668.7352,547.571,662.962,540.58,664.73" style="stroke:#181818;stroke-width:1;"/><polygon fill="#181818" points="928.8,795.71,920.9121,789.8124,923.9247,794.6004,919.1367,797.6129,928.8,795.71" style="stroke:#181818;stroke-width:1;"/><text fill="#000000" font-family="sans-serif" font-size="13" lengthAdjust="spacing" textLength="142.0479" x="726.45" y="734.4069">about_entity_mention</text><text fill="#000000" font-family="sans-serif" font-size="13" lengthAdjust="spacing" textLength="8.271" x="913.1042" y="790.5942">1</text></g><!--link CanonicalEntityIdentifier to EntityMentionIdentifier--><g class="link" data-entity-1="ent0009" data-entity-2="ent0004" data-link-type="composition" data-source-line="44" id="lnk13"><path codeLine="44" d="M1164.7708,669.9116 C1153.2808,693.2016 1141.04,714.16 1120.45,738.34 C1111.62,748.71 1105.7937,754.7884 1095.2237,763.9984" fill="none" id="CanonicalEntityIdentifier-EntityMentionIdentifier" style="stroke:#181818;stroke-width:1;"/><polygon fill="#181818" points="1170.08,659.15,1163.8382,662.7611,1164.7708,669.9116,1171.0126,666.3005,1170.08,659.15" style="stroke:#181818;stroke-width:1;"/><polygon fill="#181818" points="1090.7,767.94,1100.1133,765.0433,1094.4697,764.6553,1094.8578,759.0118,1090.7,767.94" style="stroke:#181818;stroke-width:1;"/><text fill="#000000" font-family="sans-serif" font-size="13" lengthAdjust="spacing" textLength="88.2578" x="1134.45" y="734.4069">equivalent_to</text><text fill="#000000" font-family="sans-serif" font-size="13" lengthAdjust="spacing" textLength="23.0356" x="1074.9248" y="757.4444">1..*</text></g><!--link Decision to EntityMentionIdentifier--><g class="link" data-entity-1="ent0010" data-entity-2="ent0004" data-link-type="composition" data-source-line="45" id="lnk14"><path codeLine="45" d="M266.7436,676.9732 C282.9036,684.2432 288.99,686.16 305.45,691.34 C382.39,715.57 406.06,702.3 484.45,721.34 C508.49,727.18 513.38,732.61 537.45,738.34 C671.8,770.35 824.225,791.9964 923.265,804.1964" fill="none" id="Decision-EntityMentionIdentifier" style="stroke:#181818;stroke-width:1;"/><polygon fill="#181818" points="255.8,672.05,259.6307,678.1595,266.7436,676.9732,262.9129,670.8638,255.8,672.05" style="stroke:#181818;stroke-width:1;"/><polygon fill="#181818" points="929.22,804.93,920.7765,799.8597,924.2575,804.3187,919.7985,807.7997,929.22,804.93" style="stroke:#181818;stroke-width:1;"/><text fill="#000000" font-family="sans-serif" font-size="13" lengthAdjust="spacing" textLength="142.0479" x="538.45" y="734.4069">about_entity_mention</text><text fill="#000000" font-family="sans-serif" font-size="13" lengthAdjust="spacing" textLength="8.271" x="912.9308" y="816.6417">1</text></g><!--link EntityMentionResolutionResponse to EntityMentionIdentifier--><g class="link" data-entity-1="ent0011" data-entity-2="ent0004" data-link-type="composition" data-source-line="46" id="lnk15"><path codeLine="46" d="M961.4352,684.6673 C972.8752,698.8773 977.13,705.54 986.45,721.34 C995.02,735.85 1000.356,747.0314 1006.506,762.3614" fill="none" id="EntityMentionResolutionResponse-EntityMentionIdentifier" style="stroke:#181818;stroke-width:1;"/><polygon fill="#181818" points="953.91,675.32,954.5568,682.502,961.4352,684.6673,960.7884,677.4852,953.91,675.32" style="stroke:#181818;stroke-width:1;"/><polygon fill="#181818" points="1008.74,767.93,1009.1014,758.0878,1006.8784,763.2895,1001.6766,761.0664,1008.74,767.93" style="stroke:#181818;stroke-width:1;"/><text fill="#000000" font-family="sans-serif" font-size="13" lengthAdjust="spacing" textLength="116.4033" x="995.45" y="734.4069">entity_mention_id</text><text fill="#000000" font-family="sans-serif" font-size="13" lengthAdjust="spacing" textLength="8.271" x="997.9751" y="757.4331">1</text></g><!--link EntityMention to EntityMentionIdentifier--><g class="link" data-entity-1="ent0012" data-entity-2="ent0004" data-link-type="composition" data-source-line="47" id="lnk16"><path codeLine="47" d="M1327.2946,689.5058 C1294.1446,707.9558 1266.88,722.06 1231.45,738.34 C1196.38,754.45 1162.5537,767.8356 1127.6237,780.6356" fill="none" id="EntityMention-EntityMentionIdentifier" style="stroke:#181818;stroke-width:1;"/><polygon fill="#181818" points="1337.78,683.67,1330.592,683.0927,1327.2946,689.5058,1334.4826,690.083,1337.78,683.67" style="stroke:#181818;stroke-width:1;"/><polygon fill="#181818" points="1121.99,782.7,1131.8168,783.3591,1126.6847,780.9796,1129.0642,775.8476,1121.99,782.7" style="stroke:#181818;stroke-width:1;"/><text fill="#000000" font-family="sans-serif" font-size="13" lengthAdjust="spacing" textLength="77.8604" x="1266.45" y="734.4069">identifiedBy</text><text fill="#000000" font-family="sans-serif" font-size="13" lengthAdjust="spacing" textLength="8.271" x="1129.6978" y="776.5881">1</text></g><!--link EntityMentionResolutionResponse to ClusterReference--><g class="link" data-entity-1="ent0011" data-entity-2="ent0003" data-link-type="composition" data-source-line="53" id="lnk18"><path codeLine="53" d="M904.081,687.0926 C899.261,709.5426 892.25,722.96 873.45,738.34 C798.9,799.31 525.669,812.4292 380.069,815.1192" fill="none" id="EntityMentionResolutionResponse-ClusterReference" style="stroke:#181818;stroke-width:1;"/><polygon fill="#181818" points="906.6,675.36,901.4296,680.3867,904.081,687.0926,909.2514,682.066,906.6,675.36" style="stroke:#181818;stroke-width:1;"/><polygon fill="#181818" points="374.07,815.23,383.1424,819.0631,379.0691,815.1376,382.9946,811.0644,374.07,815.23" style="stroke:#181818;stroke-width:1;"/><text fill="#000000" font-family="sans-serif" font-size="13" lengthAdjust="spacing" textLength="71.3032" x="889.45" y="734.4069">candidates</text><text fill="#000000" font-family="sans-serif" font-size="13" lengthAdjust="spacing" textLength="23.0356" x="381.8136" y="811.6087">1..*</text></g><!--reverse link EREResponse to EntityMentionResolutionResponse--><g class="link" data-entity-1="ent0017" data-entity-2="ent0011" data-link-type="extension" data-source-line="54" id="lnk19"><path codeLine="54" d="M1077.0804,274.6303 C1058.6204,292.3103 1052.1,300.94 1037.45,322.78 C982.15,405.16 943.76,515.69 924.87,577.88" fill="none" id="EREResponse-backto-EntityMentionResolutionResponse" style="stroke:#181818;stroke-width:1;"/><polygon fill="none" points="1090.08,262.18,1072.9303,270.2971,1081.2305,278.9635,1090.08,262.18" style="stroke:#181818;stroke-width:1;"/></g><!--link EntityMentionResolutionRequest to EntityMention--><g class="link" data-entity-1="ent0020" data-entity-2="ent0012" data-link-type="composition" data-source-line="62" id="lnk21"><path codeLine="62" d="M1423.6225,480.9425 C1425.7825,512.7725 1427.1538,532.9038 1429.2338,563.5538" fill="none" id="EntityMentionResolutionRequest-EntityMention" style="stroke:#181818;stroke-width:1;"/><polygon fill="#181818" points="1422.81,468.97,1419.2254,475.2271,1423.6225,480.9425,1427.2071,474.6854,1422.81,468.97" style="stroke:#181818;stroke-width:1;"/><polygon fill="#181818" points="1429.64,569.54,1433.0215,560.2898,1429.3015,564.5515,1425.0398,560.8315,1429.64,569.54" style="stroke:#181818;stroke-width:1;"/><text fill="#000000" font-family="sans-serif" font-size="13" lengthAdjust="spacing" textLength="98.0396" x="1428.45" y="527.9269">entity_mention</text><text fill="#000000" font-family="sans-serif" font-size="13" lengthAdjust="spacing" textLength="8.271" x="1420.7051" y="558.7475">1</text></g><!--reverse link ERERequest to EntityMentionResolutionRequest--><g class="link" data-entity-1="ent0022" data-entity-2="ent0020" data-link-type="extension" data-source-line="68" id="lnk23"><path codeLine="68" d="M1400.8173,279.7074 C1404.1673,303.0474 1405.68,313.68 1409.29,338.89" fill="none" id="ERERequest-backto-EntityMentionResolutionRequest" style="stroke:#181818;stroke-width:1;"/><polygon fill="none" points="1398.26,261.89,1394.8782,280.5599,1406.7565,278.855,1398.26,261.89" style="stroke:#181818;stroke-width:1;"/></g><!--reverse link EREResponse to EREErrorResponse--><g class="link" data-entity-1="ent0017" data-entity-2="ent0024" data-link-type="extension" data-source-line="83" id="lnk26"><path codeLine="83" d="M1146.45,279.89 C1146.45,298.32 1146.45,301.94 1146.45,322.63" fill="none" id="EREResponse-backto-EREErrorResponse" style="stroke:#181818;stroke-width:1;"/><polygon fill="none" points="1146.45,261.89,1140.45,279.89,1152.45,279.89,1146.45,261.89" style="stroke:#181818;stroke-width:1;"/></g><!--reverse link EREMessage to EREResponse--><g class="link" data-entity-1="ent0025" data-entity-2="ent0017" data-link-type="extension" data-source-line="84" id="lnk27"><path codeLine="84" d="M1211.8391,118.8141 C1198.4491,137.9741 1193.33,145.28 1179.92,164.47" fill="none" id="EREMessage-backto-EREResponse" style="stroke:#181818;stroke-width:1;"/><polygon fill="none" points="1222.15,104.06,1206.921,115.3771,1216.7571,122.2511,1222.15,104.06" style="stroke:#181818;stroke-width:1;"/></g><!--reverse link EREMessage to ERERequest--><g class="link" data-entity-1="ent0025" data-entity-2="ent0022" data-link-type="extension" data-source-line="85" id="lnk28"><path codeLine="85" d="M1308.825,117.6222 C1325.545,136.7822 1332.95,145.28 1349.69,164.47" fill="none" id="EREMessage-backto-ERERequest" style="stroke:#181818;stroke-width:1;"/><polygon fill="none" points="1296.99,104.06,1304.3043,121.5672,1313.3457,113.6771,1296.99,104.06" style="stroke:#181818;stroke-width:1;"/></g><!--link Decision to ClusterReference--><g class="link" data-entity-1="ent0010" data-entity-2="ent0003" data-link-type="composition" data-source-line="86" id="lnk29"><path codeLine="86" d="M158.5964,687.4588 C156.2064,707.8988 158.34,719.43 168.45,738.34 C174.9,750.4 179.6033,757.0049 190.1133,766.0549" fill="none" id="Decision-ClusterReference" style="stroke:#181818;stroke-width:1;"/><polygon fill="#181818" points="159.99,675.54,155.3202,681.0349,158.5964,687.4588,163.2661,681.9639,159.99,675.54" style="stroke:#181818;stroke-width:1;"/><polygon fill="#181818" points="194.66,769.97,190.45,761.0663,190.8711,766.7074,185.2299,767.1285,194.66,769.97" style="stroke:#181818;stroke-width:1;"/><text fill="#000000" font-family="sans-serif" font-size="13" lengthAdjust="spacing" textLength="71.3032" x="169.45" y="734.4069">candidates</text><text fill="#000000" font-family="sans-serif" font-size="13" lengthAdjust="spacing" textLength="23.0356" x="164.2231" y="763.053">1..*</text></g><!--link Decision to ClusterReference--><g class="link" data-entity-1="ent0010" data-entity-2="ent0003" data-link-type="composition" data-source-line="87" id="lnk30"><path codeLine="87" d="M76.1475,662.1652 C33.3575,681.9452 6,705.32 30.45,738.34 C50.44,765.34 124.1241,785.4862 188.9441,798.8762" fill="none" id="Decision-ClusterReference-1" style="stroke:#181818;stroke-width:1;"/><polygon fill="#181818" points="87.04,657.13,79.9153,656.0167,76.1475,662.1652,83.2721,663.2784,87.04,657.13" style="stroke:#181818;stroke-width:1;"/><polygon fill="#181818" points="194.82,800.09,186.8153,794.352,189.9234,799.0785,185.1969,802.1866,194.82,800.09" style="stroke:#181818;stroke-width:1;"/><text fill="#000000" font-family="sans-serif" font-size="13" lengthAdjust="spacing" textLength="122.8843" x="31.45" y="734.4069">current_placement</text><text fill="#000000" font-family="sans-serif" font-size="13" lengthAdjust="spacing" textLength="8.271" x="178.7856" y="795.0833">1</text></g><?plantuml-src nLTDZzis4Btlho1qQXPhDxdcK21jVGZGN9pajDWQD4NRH2XH9QdT68lzxtdyqASfoMc1hc70j3WpvBnvyqWnIOqXsLV3zGTcXIepSd___B4eQaltaXFDcT8vKGT22QirjKeJwWq9lhGalBJ2dadXVl54SwDaxORhbuS7ydn3y7a-22xp5o9oyfuOgqLv96Gm4qBkxBdYCEbsyyKzk3357YRYCCsfvVcEMbZa65fHZ0CKt59CqNwCbniMWFX3riPolUK7hdd9k8VZ0zAA_ubL3ebWvVuydGGxzO0GXkIS5pntatikLNcy8q_2UXiiePXmEoHCbGUH-v2qp8aHXP1KkmW6Y7EJW2-kkfk6iGkwyr5WTv0AO0pDkiKkp5eWDZwTJw6i7tFt2syTyS12behIGN22tr6hkZ8O8ncBZUrhomqfESy33YBudnE44K2bnneC_wcviPVP6rLhv3MTVFISiGXBDoph5N_0_zlLwZUIlLsltsKfFhmdcU6ICqUpM94i5U3TUdqx5O2XvCBHqwHTindyuKxtghQxc4q4CciAzvTIt-hgiqLqNwmlch9leJOzc8sR9mTqqh0UXXoqAb2IYcehM0sQHEJN_w8as97TcP9MvgH67Tbr72rLAHYL8UCBgabrTBEHGzWfk8V5QcP9fTMZoDsor2NazAgreYKxAPqKeMQ1f03yoPamZGwsUoELf8mxZBmKNh2uhme_9NpN25PTvKcRTAzkso9ZL06hg67jdWVD5YmmiBKkqQpxisVAPhj9fE4QvnVnPhAzDDzrJJXZwFQFUXLLi5bCQPH0Ant6IqU5BF24XaFfu9zHkNfIMkRHvGxA6zdIp_5pIcIXR72w48c4pTGqMiUWNAETpSNwRaTwDDCK0tMPKmbKGZnIwPDHq9cEsVz5PPR9TbtqOLpmPHpwsa1jF-U_dxCRkWUCk2B0PxiPDC1MGO82kz2jRN48bR8HHsziY7_ywermDT3NdZC3GFvUhPPrOr5VV8fpyk8D0g00FG9wrrmV723kMVJq5wRW_yZp1Epeu4gPxjm5kAO7xJtExDk7OIM-mpJ_6O_NBMq4T8BvYSQvO7nNacN2UripBi-hyRst_Nbw1gEMdTlDHckbXztUd6oZPiPzdUFsex0eTqw_WY6y2aS7mmkESHTwt2D0DSQD2NUBc5i261zZzgo85iBA1PCShoL2BeH1eIV3_1z56f3j4m2YnvwwDhFnHjIZNFTIm5HHXEczmajHIqBt4WJhMbepGS3h4blCAisxeIwE6NKpIBUnMPoEFBqyUQ-LxDIHdVQgjNO7VNjDpNu0?></g></svg>