<svg xmlns="http://www.w3.org/2000/svg" xmlns:xlink="http://www.w3.org/1999/xlink" contentStyleType="text/css" data-diagram-type="CLASS" height="665px" preserveAspectRatio="none" style="width:1222px;height:665px;background:#FFFFFF;" version="1.1" viewBox="0 0 1222 665" width="1222px" zoomAndPan="magnify"><defs/><g><!--class EntityMentionResolutionResponse--><g class="entity" data-entity="EntityMentionResolutionResponse" data-source-line="1" data-uid="ent0002" id="entity_EntityMentionResolutionResponse"><a href="" target="_top" title="An entity resolution response returned by the ERE." xlink:actuate="onRequest" xlink:href="" xlink:show="new" xlink:title="An entity resolution response returned by the ERE." xlink:type="simple"><rect fill="#F1F1F1" height="145.7813" rx="2.5" ry="2.5" style="stroke:#181818;stroke-width:0.5;" width="270.9023" x="221.12" y="330.93"/><ellipse cx="236.12" cy="346.93" fill="#ADD1B2" rx="11" ry="11" style="stroke:#181818;stroke-width:1;"/><path d="M239.0888,352.5706 Q238.5106,352.8675 237.87,353.0081 Q237.2294,353.1644 236.5263,353.1644 Q234.0263,353.1644 232.6981,351.5238 Q231.3856,349.8675 231.3856,346.7425 Q231.3856,343.6175 232.6981,341.9613 Q234.0263,340.305 236.5263,340.305 Q237.2294,340.305 237.87,340.4613 Q238.5263,340.6175 239.0888,340.9144 L239.0888,343.6331 Q238.4638,343.055 237.87,342.7894 Q237.2763,342.5081 236.6513,342.5081 Q235.3075,342.5081 234.62,343.5863 Q233.9325,344.6488 233.9325,346.7425 Q233.9325,348.8363 234.62,349.9144 Q235.3075,350.9769 236.6513,350.9769 Q237.2763,350.9769 237.87,350.7113 Q238.4638,350.43 239.0888,349.8519 L239.0888,352.5706 Z " fill="#000000"/><text fill="#000000" font-family="sans-serif" font-size="14" lengthAdjust="spacing" textLength="238.9023" x="250.12" y="351.7767">EntityMentionResolutionResponse</text><line style="stroke:#181818;stroke-width:0.5;" x1="222.12" x2="491.0223" y1="362.93" y2="362.93"/><text fill="#000000" font-family="sans-serif" font-size="14" lengthAdjust="spacing" textLength="113.6201" x="227.12" y="379.9251">sourceId : string</text><text fill="#000000" font-family="sans-serif" font-size="14" lengthAdjust="spacing" textLength="120.3467" x="227.12" y="396.222">requestId : string</text><text fill="#000000" font-family="sans-serif" font-size="14" lengthAdjust="spacing" textLength="128.7822" x="227.12" y="412.5189">entityType : string</text><text fill="#000000" font-family="sans-serif" font-size="14" lengthAdjust="spacing" textLength="99.8936" x="227.12" y="428.8157">type(i) : string</text><text fill="#000000" font-family="sans-serif" font-size="14" lengthAdjust="spacing" textLength="162.1143" x="227.12" y="445.1126">ereRequestId(i) : string</text><text fill="#000000" font-family="sans-serif" font-size="14" lengthAdjust="spacing" textLength="167.1455" x="227.12" y="461.4095">timestamp(i) : datetime</text><line style="stroke:#181818;stroke-width:0.5;" x1="222.12" x2="491.0223" y1="468.7113" y2="468.7113"/></a></g><!--class EntityMentionIdentifers--><g class="entity" data-entity="EntityMentionIdentifers" data-source-line="9" data-uid="ent0003" id="entity_EntityMentionIdentifers"><a href="" target="_top" title="A container that groups the attributes needed to identify an entity mention in a resolution request" xlink:actuate="onRequest" xlink:href="" xlink:show="new" xlink:title="A container that groups the attributes needed to identify an entity mention in a resolution request" xlink:type="simple"><rect fill="#F1F1F1" height="96.8906" rx="2.5" ry="2.5" style="stroke:#181818;stroke-width:0.5;" width="195.7275" x="688.71" y="561.86"/><ellipse cx="703.71" cy="577.86" fill="#A9DCDF" rx="11" ry="11" style="stroke:#181818;stroke-width:1;"/><path d="M703.8194,573.2038 L702.6631,578.2819 L704.9913,578.2819 L703.8194,573.2038 Z M702.335,570.9694 L705.3194,570.9694 L708.6788,583.36 L706.2256,583.36 L705.46,580.2975 L702.1788,580.2975 L701.4288,583.36 L698.9913,583.36 L702.335,570.9694 Z " fill="#000000"/><text fill="#000000" font-family="sans-serif" font-size="14" font-style="italic" lengthAdjust="spacing" textLength="163.7275" x="717.71" y="582.7067">EntityMentionIdentifers</text><line style="stroke:#181818;stroke-width:0.5;" x1="689.71" x2="883.4375" y1="593.86" y2="593.86"/><text fill="#000000" font-family="sans-serif" font-size="14" lengthAdjust="spacing" textLength="113.6201" x="694.71" y="610.8551">sourceId : string</text><text fill="#000000" font-family="sans-serif" font-size="14" lengthAdjust="spacing" textLength="120.3467" x="694.71" y="627.152">requestId : string</text><text fill="#000000" font-family="sans-serif" font-size="14" lengthAdjust="spacing" textLength="128.7822" x="694.71" y="643.4489">entityType : string</text><line style="stroke:#181818;stroke-width:0.5;" x1="689.71" x2="883.4375" y1="650.7506" y2="650.7506"/></a></g><!--class EntityMentionResolutionRequest--><g class="entity" data-entity="EntityMentionResolutionRequest" data-source-line="14" data-uid="ent0004" id="entity_EntityMentionResolutionRequest"><a href="" target="_top" title="An entity resolution request sent to the ERE, containing the entity to be resolved." xlink:actuate="onRequest" xlink:href="" xlink:show="new" xlink:title="An entity resolution request sent to the ERE, containing the entity to be resolved." xlink:type="simple"><rect fill="#F1F1F1" height="162.0781" rx="2.5" ry="2.5" style="stroke:#181818;stroke-width:0.5;" width="260.5322" x="955.31" y="322.78"/><ellipse cx="970.31" cy="338.78" fill="#ADD1B2" rx="11" ry="11" style="stroke:#181818;stroke-width:1;"/><path d="M973.2788,344.4206 Q972.7006,344.7175 972.06,344.8581 Q971.4194,345.0144 970.7163,345.0144 Q968.2163,345.0144 966.8881,343.3738 Q965.5756,341.7175 965.5756,338.5925 Q965.5756,335.4675 966.8881,333.8113 Q968.2163,332.155 970.7163,332.155 Q971.4194,332.155 972.06,332.3113 Q972.7163,332.4675 973.2788,332.7644 L973.2788,335.4831 Q972.6538,334.905 972.06,334.6394 Q971.4663,334.3581 970.8413,334.3581 Q969.4975,334.3581 968.81,335.4363 Q968.1225,336.4988 968.1225,338.5925 Q968.1225,340.6863 968.81,341.7644 Q969.4975,342.8269 970.8413,342.8269 Q971.4663,342.8269 972.06,342.5613 Q972.6538,342.28 973.2788,341.7019 L973.2788,344.4206 Z " fill="#000000"/><text fill="#000000" font-family="sans-serif" font-size="14" lengthAdjust="spacing" textLength="228.5322" x="984.31" y="343.6267">EntityMentionResolutionRequest</text><line style="stroke:#181818;stroke-width:0.5;" x1="956.31" x2="1214.8422" y1="354.78" y2="354.78"/><text fill="#000000" font-family="sans-serif" font-size="14" lengthAdjust="spacing" textLength="232.1826" x="961.31" y="371.7751">excludedClusterIds : string  [0..*]</text><text fill="#000000" font-family="sans-serif" font-size="14" lengthAdjust="spacing" textLength="113.6201" x="961.31" y="388.072">sourceId : string</text><text fill="#000000" font-family="sans-serif" font-size="14" lengthAdjust="spacing" textLength="120.3467" x="961.31" y="404.3689">requestId : string</text><text fill="#000000" font-family="sans-serif" font-size="14" lengthAdjust="spacing" textLength="128.7822" x="961.31" y="420.6657">entityType : string</text><text fill="#000000" font-family="sans-serif" font-size="14" lengthAdjust="spacing" textLength="99.8936" x="961.31" y="436.9626">type(i) : string</text><text fill="#000000" font-family="sans-serif" font-size="14" lengthAdjust="spacing" textLength="162.1143" x="961.31" y="453.2595">ereRequestId(i) : string</text><text fill="#000000" font-family="sans-serif" font-size="14" lengthAdjust="spacing" textLength="167.1455" x="961.31" y="469.5564">timestamp(i) : datetime</text><line style="stroke:#181818;stroke-width:0.5;" x1="956.31" x2="1214.8422" y1="476.8581" y2="476.8581"/></a></g><!--class ClusterRef--><g class="entity" data-entity="ClusterRef" data-source-line="25" data-uid="ent0007" id="entity_ClusterRef"><a href="" target="_top" title="A reference to a cluster to which an entity is deemed to belong, with an associated confidence score." xlink:actuate="onRequest" xlink:href="" xlink:show="new" xlink:title="A reference to a cluster to which an entity is deemed to belong, with an associated confidence score." xlink:type="simple"><rect fill="#F1F1F1" height="80.5938" rx="2.5" ry="2.5" style="stroke:#181818;stroke-width:0.5;" width="173.2256" x="269.96" y="570.01"/><ellipse cx="315.8428" cy="586.01" fill="#ADD1B2" rx="11" ry="11" style="stroke:#181818;stroke-width:1;"/><path d="M318.8116,591.6506 Q318.2334,591.9475 317.5928,592.0881 Q316.9522,592.2444 316.2491,592.2444 Q313.7491,592.2444 312.4209,590.6038 Q311.1084,588.9475 311.1084,585.8225 Q311.1084,582.6975 312.4209,581.0413 Q313.7491,579.385 316.2491,579.385 Q316.9522,579.385 317.5928,579.5413 Q318.2491,579.6975 318.8116,579.9944 L318.8116,582.7131 Q318.1866,582.135 317.5928,581.8694 Q316.9991,581.5881 316.3741,581.5881 Q315.0303,581.5881 314.3428,582.6663 Q313.6553,583.7288 313.6553,585.8225 Q313.6553,587.9163 314.3428,588.9944 Q315.0303,590.0569 316.3741,590.0569 Q316.9991,590.0569 317.5928,589.7913 Q318.1866,589.51 318.8116,588.9319 L318.8116,591.6506 Z " fill="#000000"/><text fill="#000000" font-family="sans-serif" font-size="14" lengthAdjust="spacing" textLength="72.96" x="336.3428" y="590.8567">ClusterRef</text><line style="stroke:#181818;stroke-width:0.5;" x1="270.96" x2="442.1856" y1="602.01" y2="602.01"/><text fill="#000000" font-family="sans-serif" font-size="14" lengthAdjust="spacing" textLength="114.4336" x="275.96" y="619.0051">clusterId : string</text><text fill="#000000" font-family="sans-serif" font-size="14" lengthAdjust="spacing" textLength="161.2256" x="275.96" y="635.302">confidenceScore : float</text><line style="stroke:#181818;stroke-width:0.5;" x1="270.96" x2="442.1856" y1="642.6038" y2="642.6038"/></a></g><!--class EREResponse--><g class="entity" data-entity="EREResponse" data-source-line="29" data-uid="ent0008" id="entity_EREResponse"><a href="" target="_top" title="Root class to represent all the responses sent by the ERE." xlink:actuate="onRequest" xlink:href="" xlink:show="new" xlink:title="Root class to represent all the responses sent by the ERE." xlink:type="simple"><rect fill="#F1F1F1" height="96.8906" rx="2.5" ry="2.5" style="stroke:#181818;stroke-width:0.5;" width="179.1455" x="397" y="164.89"/><ellipse cx="435.3367" cy="180.89" fill="#A9DCDF" rx="11" ry="11" style="stroke:#181818;stroke-width:1;"/><path d="M435.4461,176.2338 L434.2898,181.3119 L436.618,181.3119 L435.4461,176.2338 Z M433.9617,173.9994 L436.9461,173.9994 L440.3055,186.39 L437.8523,186.39 L437.0867,183.3275 L433.8055,183.3275 L433.0555,186.39 L430.618,186.39 L433.9617,173.9994 Z " fill="#000000"/><text fill="#000000" font-family="sans-serif" font-size="14" font-style="italic" lengthAdjust="spacing" textLength="95.2861" x="454.5227" y="185.7367">EREResponse</text><line style="stroke:#181818;stroke-width:0.5;" x1="398" x2="575.1455" y1="196.89" y2="196.89"/><text fill="#000000" font-family="sans-serif" font-size="14" lengthAdjust="spacing" textLength="99.8936" x="403" y="213.8851">type(i) : string</text><text fill="#000000" font-family="sans-serif" font-size="14" lengthAdjust="spacing" textLength="162.1143" x="403" y="230.182">ereRequestId(i) : string</text><text fill="#000000" font-family="sans-serif" font-size="14" lengthAdjust="spacing" textLength="167.1455" x="403" y="246.4789">timestamp(i) : datetime</text><line style="stroke:#181818;stroke-width:0.5;" x1="398" x2="575.1455" y1="253.7806" y2="253.7806"/></a></g><!--class EntityMention--><g class="entity" data-entity="EntityMention" data-source-line="36" data-uid="ent0011" id="entity_EntityMention"><a href="" target="_top" title="An entity mention is a representation of a real-world entity, as provided by the ERS." xlink:actuate="onRequest" xlink:href="" xlink:show="new" xlink:title="An entity mention is a representation of a real-world entity, as provided by the ERS." xlink:type="simple"><rect fill="#F1F1F1" height="80.5938" rx="2.5" ry="2.5" style="stroke:#181818;stroke-width:0.5;" width="153.7432" x="1008.7" y="570.01"/><ellipse cx="1034.7197" cy="586.01" fill="#ADD1B2" rx="11" ry="11" style="stroke:#181818;stroke-width:1;"/><path d="M1037.6885,591.6506 Q1037.1104,591.9475 1036.4697,592.0881 Q1035.8291,592.2444 1035.126,592.2444 Q1032.626,592.2444 1031.2979,590.6038 Q1029.9854,588.9475 1029.9854,585.8225 Q1029.9854,582.6975 1031.2979,581.0413 Q1032.626,579.385 1035.126,579.385 Q1035.8291,579.385 1036.4697,579.5413 Q1037.126,579.6975 1037.6885,579.9944 L1037.6885,582.7131 Q1037.0635,582.135 1036.4697,581.8694 Q1035.876,581.5881 1035.251,581.5881 Q1033.9072,581.5881 1033.2197,582.6663 Q1032.5322,583.7288 1032.5322,585.8225 Q1032.5322,587.9163 1033.2197,588.9944 Q1033.9072,590.0569 1035.251,590.0569 Q1035.876,590.0569 1036.4697,589.7913 Q1037.0635,589.51 1037.6885,588.9319 L1037.6885,591.6506 Z " fill="#000000"/><text fill="#000000" font-family="sans-serif" font-size="14" lengthAdjust="spacing" textLength="97.2549" x="1051.1686" y="590.8567">EntityMention</text><line style="stroke:#181818;stroke-width:0.5;" x1="1009.7" x2="1161.4432" y1="602.01" y2="602.01"/><text fill="#000000" font-family="sans-serif" font-size="14" lengthAdjust="spacing" textLength="141.7432" x="1014.7" y="619.0051">contentType : string</text><text fill="#000000" font-family="sans-serif" font-size="14" lengthAdjust="spacing" textLength="107.4063" x="1014.7" y="635.302">content : string</text><line style="stroke:#181818;stroke-width:0.5;" x1="1009.7" x2="1161.4432" y1="642.6038" y2="642.6038"/></a></g><!--class ERERequest--><g class="entity" data-entity="ERERequest" data-source-line="40" data-uid="ent0012" id="entity_ERERequest"><a href="" target="_top" title="Root class to represent all the requests sent to the ERE." xlink:actuate="onRequest" xlink:href="" xlink:show="new" xlink:title="Root class to represent all the requests sent to the ERE." xlink:type="simple"><rect fill="#F1F1F1" height="96.8906" rx="2.5" ry="2.5" style="stroke:#181818;stroke-width:0.5;" width="179.1455" x="741" y="164.89"/><ellipse cx="784.0033" cy="180.89" fill="#A9DCDF" rx="11" ry="11" style="stroke:#181818;stroke-width:1;"/><path d="M784.1126,176.2338 L782.9564,181.3119 L785.2845,181.3119 L784.1126,176.2338 Z M782.6283,173.9994 L785.6126,173.9994 L788.972,186.39 L786.5189,186.39 L785.7533,183.3275 L782.472,183.3275 L781.722,186.39 L779.2845,186.39 L782.6283,173.9994 Z " fill="#000000"/><text fill="#000000" font-family="sans-serif" font-size="14" font-style="italic" lengthAdjust="spacing" textLength="84.916" x="804.2262" y="185.7367">ERERequest</text><line style="stroke:#181818;stroke-width:0.5;" x1="742" x2="919.1455" y1="196.89" y2="196.89"/><text fill="#000000" font-family="sans-serif" font-size="14" lengthAdjust="spacing" textLength="99.8936" x="747" y="213.8851">type(i) : string</text><text fill="#000000" font-family="sans-serif" font-size="14" lengthAdjust="spacing" textLength="162.1143" x="747" y="230.182">ereRequestId(i) : string</text><text fill="#000000" font-family="sans-serif" font-size="14" lengthAdjust="spacing" textLength="167.1455" x="747" y="246.4789">timestamp(i) : datetime</text><line style="stroke:#181818;stroke-width:0.5;" x1="742" x2="919.1455" y1="253.7806" y2="253.7806"/></a></g><!--class FullRebuildResponse--><g class="entity" data-entity="FullRebuildResponse" data-source-line="47" data-uid="ent0015" id="entity_FullRebuildResponse"><a href="" target="_top" title="A response to a `FullRebuildRequest`, confirming that the rebuild process has started." xlink:actuate="onRequest" xlink:href="" xlink:show="new" xlink:title="A response to a `FullRebuildRequest`, confirming that the rebuild process has started." xlink:type="simple"><rect fill="#F1F1F1" height="96.8906" rx="2.5" ry="2.5" style="stroke:#181818;stroke-width:0.5;" width="179.1455" x="527" y="355.38"/><ellipse cx="542.813" cy="371.38" fill="#ADD1B2" rx="11" ry="11" style="stroke:#181818;stroke-width:1;"/><path d="M545.7817,377.0206 Q545.2036,377.3175 544.563,377.4581 Q543.9224,377.6144 543.2192,377.6144 Q540.7192,377.6144 539.3911,375.9738 Q538.0786,374.3175 538.0786,371.1925 Q538.0786,368.0675 539.3911,366.4113 Q540.7192,364.755 543.2192,364.755 Q543.9224,364.755 544.563,364.9113 Q545.2192,365.0675 545.7817,365.3644 L545.7817,368.0831 Q545.1567,367.505 544.563,367.2394 Q543.9692,366.9581 543.3442,366.9581 Q542.0005,366.9581 541.313,368.0363 Q540.6255,369.0988 540.6255,371.1925 Q540.6255,373.2863 541.313,374.3644 Q542.0005,375.4269 543.3442,375.4269 Q543.9692,375.4269 544.563,375.1613 Q545.1567,374.88 545.7817,374.3019 L545.7817,377.0206 Z " fill="#000000"/><text fill="#000000" font-family="sans-serif" font-size="14" lengthAdjust="spacing" textLength="145.3389" x="556.9937" y="376.2267">FullRebuildResponse</text><line style="stroke:#181818;stroke-width:0.5;" x1="528" x2="705.1455" y1="387.38" y2="387.38"/><text fill="#000000" font-family="sans-serif" font-size="14" lengthAdjust="spacing" textLength="99.8936" x="533" y="404.3751">type(i) : string</text><text fill="#000000" font-family="sans-serif" font-size="14" lengthAdjust="spacing" textLength="162.1143" x="533" y="420.672">ereRequestId(i) : string</text><text fill="#000000" font-family="sans-serif" font-size="14" lengthAdjust="spacing" textLength="167.1455" x="533" y="436.9689">timestamp(i) : datetime</text><line style="stroke:#181818;stroke-width:0.5;" x1="528" x2="705.1455" y1="444.2706" y2="444.2706"/></a></g><!--class EREErrorResponse--><g class="entity" data-entity="EREErrorResponse" data-source-line="52" data-uid="ent0016" id="entity_EREErrorResponse"><a href="" target="_top" title="Response sent by the ERE when some error/exception occurs while processing a request." xlink:actuate="onRequest" xlink:href="" xlink:show="new" xlink:title="Response sent by the ERE when some error/exception occurs while processing a request." xlink:type="simple"><rect fill="#F1F1F1" height="162.0781" rx="2.5" ry="2.5" style="stroke:#181818;stroke-width:0.5;" width="179.1455" x="7" y="322.78"/><ellipse cx="29.7313" cy="338.78" fill="#ADD1B2" rx="11" ry="11" style="stroke:#181818;stroke-width:1;"/><path d="M32.7,344.4206 Q32.1219,344.7175 31.4813,344.8581 Q30.8407,345.0144 30.1375,345.0144 Q27.6375,345.0144 26.3094,343.3738 Q24.9969,341.7175 24.9969,338.5925 Q24.9969,335.4675 26.3094,333.8113 Q27.6375,332.155 30.1375,332.155 Q30.8407,332.155 31.4813,332.3113 Q32.1375,332.4675 32.7,332.7644 L32.7,335.4831 Q32.075,334.905 31.4813,334.6394 Q30.8875,334.3581 30.2625,334.3581 Q28.9188,334.3581 28.2313,335.4363 Q27.5438,336.4988 27.5438,338.5925 Q27.5438,340.6863 28.2313,341.7644 Q28.9188,342.8269 30.2625,342.8269 Q30.8875,342.8269 31.4813,342.5613 Q32.075,342.28 32.7,341.7019 L32.7,344.4206 Z " fill="#000000"/><text fill="#000000" font-family="sans-serif" font-size="14" lengthAdjust="spacing" textLength="129.9648" x="45.4494" y="343.6267">EREErrorResponse</text><line style="stroke:#181818;stroke-width:0.5;" x1="8" x2="185.1455" y1="354.78" y2="354.78"/><text fill="#000000" font-family="sans-serif" font-size="14" lengthAdjust="spacing" textLength="122.5889" x="13" y="371.7751">errorType : string</text><text fill="#000000" font-family="sans-serif" font-size="14" lengthAdjust="spacing" textLength="118.6855" x="13" y="388.072">errorTitle : string</text><text fill="#000000" font-family="sans-serif" font-size="14" lengthAdjust="spacing" textLength="129.4932" x="13" y="404.3689">errorDetail : string</text><text fill="#000000" font-family="sans-serif" font-size="14" lengthAdjust="spacing" textLength="127.4492" x="13" y="420.6657">errorTrace : string</text><text fill="#000000" font-family="sans-serif" font-size="14" lengthAdjust="spacing" textLength="99.8936" x="13" y="436.9626">type(i) : string</text><text fill="#000000" font-family="sans-serif" font-size="14" lengthAdjust="spacing" textLength="162.1143" x="13" y="453.2595">ereRequestId(i) : string</text><text fill="#000000" font-family="sans-serif" font-size="14" lengthAdjust="spacing" textLength="167.1455" x="13" y="469.5564">timestamp(i) : datetime</text><line style="stroke:#181818;stroke-width:0.5;" x1="8" x2="185.1455" y1="476.8581" y2="476.8581"/></a></g><!--class EREMessage--><g class="entity" data-entity="EREMessage" data-source-line="61" data-uid="ent0017" id="entity_EREMessage"><a href="" target="_top" title="Root abstraction to represent attributes common to both requests and results." xlink:actuate="onRequest" xlink:href="" xlink:show="new" xlink:title="Root abstraction to represent attributes common to both requests and results." xlink:type="simple"><rect fill="#F1F1F1" height="96.8906" rx="2.5" ry="2.5" style="stroke:#181818;stroke-width:0.5;" width="164.332" x="510.41" y="7"/><ellipse cx="545.0092" cy="23" fill="#A9DCDF" rx="11" ry="11" style="stroke:#181818;stroke-width:1;"/><path d="M545.1185,18.3438 L543.9623,23.4219 L546.2904,23.4219 L545.1185,18.3438 Z M543.6342,16.1094 L546.6185,16.1094 L549.9779,28.5 L547.5248,28.5 L546.7592,25.4375 L543.4779,25.4375 L542.7279,28.5 L540.2904,28.5 L543.6342,16.1094 Z " fill="#000000"/><text fill="#000000" font-family="sans-serif" font-size="14" font-style="italic" lengthAdjust="spacing" textLength="88.7783" x="563.3645" y="27.8467">EREMessage</text><line style="stroke:#181818;stroke-width:0.5;" x1="511.41" x2="673.742" y1="39" y2="39"/><text fill="#000000" font-family="sans-serif" font-size="14" lengthAdjust="spacing" textLength="85.0801" x="516.41" y="55.9951">type : string</text><text fill="#000000" font-family="sans-serif" font-size="14" lengthAdjust="spacing" textLength="147.3008" x="516.41" y="72.292">ereRequestId : string</text><text fill="#000000" font-family="sans-serif" font-size="14" lengthAdjust="spacing" textLength="152.332" x="516.41" y="88.5889">timestamp : datetime</text><line style="stroke:#181818;stroke-width:0.5;" x1="511.41" x2="673.742" y1="95.8906" y2="95.8906"/></a></g><!--class FullRebuildRequest--><g class="entity" data-entity="FullRebuildRequest" data-source-line="69" data-uid="ent0021" id="entity_FullRebuildRequest"><a href="" target="_top" title="A request to reset all the resolutions computed so far and possibly rebuild them as " xlink:actuate="onRequest" xlink:href="" xlink:show="new" xlink:title="A request to reset all the resolutions computed so far and possibly rebuild them as " xlink:type="simple"><rect fill="#F1F1F1" height="96.8906" rx="2.5" ry="2.5" style="stroke:#181818;stroke-width:0.5;" width="179.1455" x="741" y="355.38"/><ellipse cx="761.4795" cy="371.38" fill="#ADD1B2" rx="11" ry="11" style="stroke:#181818;stroke-width:1;"/><path d="M764.4483,377.0206 Q763.8702,377.3175 763.2295,377.4581 Q762.5889,377.6144 761.8858,377.6144 Q759.3858,377.6144 758.0577,375.9738 Q756.7452,374.3175 756.7452,371.1925 Q756.7452,368.0675 758.0577,366.4113 Q759.3858,364.755 761.8858,364.755 Q762.5889,364.755 763.2295,364.9113 Q763.8858,365.0675 764.4483,365.3644 L764.4483,368.0831 Q763.8233,367.505 763.2295,367.2394 Q762.6358,366.9581 762.0108,366.9581 Q760.667,366.9581 759.9795,368.0363 Q759.292,369.0988 759.292,371.1925 Q759.292,373.2863 759.9795,374.3644 Q760.667,375.4269 762.0108,375.4269 Q762.6358,375.4269 763.2295,375.1613 Q763.8233,374.88 764.4483,374.3019 L764.4483,377.0206 Z " fill="#000000"/><text fill="#000000" font-family="sans-serif" font-size="14" lengthAdjust="spacing" textLength="134.9688" x="776.6972" y="376.2267">FullRebuildRequest</text><line style="stroke:#181818;stroke-width:0.5;" x1="742" x2="919.1455" y1="387.38" y2="387.38"/><text fill="#000000" font-family="sans-serif" font-size="14" lengthAdjust="spacing" textLength="99.8936" x="747" y="404.3751">type(i) : string</text><text fill="#000000" font-family="sans-serif" font-size="14" lengthAdjust="spacing" textLength="162.1143" x="747" y="420.672">ereRequestId(i) : string</text><text fill="#000000" font-family="sans-serif" font-size="14" lengthAdjust="spacing" textLength="167.1455" x="747" y="436.9689">timestamp(i) : datetime</text><line style="stroke:#181818;stroke-width:0.5;" x1="742" x2="919.1455" y1="444.2706" y2="444.2706"/></a></g><!--link EntityMentionResolutionResponse to EntityMentionIdentifers--><g class="link" data-entity-1="EntityMentionResolutionResponse" data-entity-2="EntityMentionIdentifers" data-source-line="23" data-uid="lnk5" id="link_EntityMentionResolutionResponse_EntityMentionIdentifers"><path codeLine="23" d="M492.34,476.38 C498.15,479.27 503.91,482.11 509.57,484.86 C568.38,513.42 635.21,543.51 688.49,566.95" fill="none" id="EntityMentionResolutionResponse-EntityMentionIdentifers" style="stroke:#181818;stroke-width:1;"/><text fill="#000000" font-family="sans-serif" font-size="13" lengthAdjust="spacing" textLength="29.7832" x="608.57" y="527.9269">uses</text></g><!--link EntityMentionResolutionRequest to EntityMentionIdentifers--><g class="link" data-entity-1="EntityMentionResolutionRequest" data-entity-2="EntityMentionIdentifers" data-source-line="24" data-uid="lnk6" id="link_EntityMentionResolutionRequest_EntityMentionIdentifers"><path codeLine="24" d="M967.83,485.34 C930.08,511.16 889.5,538.92 856.32,561.6" fill="none" id="EntityMentionResolutionRequest-EntityMentionIdentifers" style="stroke:#181818;stroke-width:1;"/><text fill="#000000" font-family="sans-serif" font-size="13" lengthAdjust="spacing" textLength="29.7832" x="918.57" y="527.9269">uses</text></g><!--link EntityMentionResolutionResponse to ClusterRef--><g class="link" data-entity-1="EntityMentionResolutionResponse" data-entity-2="ClusterRef" data-source-line="34" data-uid="lnk9" id="link_EntityMentionResolutionResponse_ClusterRef"><path codeLine="34" d="M356.57,489.2 C356.57,520.34 356.57,537.52 356.57,563.75" fill="none" id="EntityMentionResolutionResponse-ClusterRef" style="stroke:#181818;stroke-width:1;"/><polygon fill="#181818" points="356.57,477.2,352.57,483.2,356.57,489.2,360.57,483.2,356.57,477.2" style="stroke:#181818;stroke-width:1;"/><polygon fill="#181818" points="356.57,569.75,360.57,560.75,356.57,564.75,352.57,560.75,356.57,569.75" style="stroke:#181818;stroke-width:1;"/><text fill="#000000" font-family="sans-serif" font-size="13" lengthAdjust="spacing" textLength="50.9844" x="357.57" y="527.9269">clusters</text><text fill="#000000" font-family="sans-serif" font-size="13" lengthAdjust="spacing" textLength="23.0356" x="331.6678" y="558.8685">1..*</text></g><!--reverse link EREResponse to EntityMentionResolutionResponse--><g class="link" data-entity-1="EREResponse" data-entity-2="EntityMentionResolutionResponse" data-source-line="35" data-uid="lnk10" id="link_EREResponse_EntityMentionResolutionResponse"><path codeLine="35" d="M443.5486,276.7163 C429.1786,297.5463 422.23,307.63 406.34,330.66" fill="none" id="EREResponse-backto-EntityMentionResolutionResponse" style="stroke:#181818;stroke-width:1;"/><polygon fill="none" points="453.77,261.9,438.6099,273.3092,448.4874,280.1235,453.77,261.9" style="stroke:#181818;stroke-width:1;"/></g><!--link EntityMentionResolutionRequest to EntityMention--><g class="link" data-entity-1="EntityMentionResolutionRequest" data-entity-2="EntityMention" data-source-line="45" data-uid="lnk13" id="link_EntityMentionResolutionRequest_EntityMention"><path codeLine="45" d="M1085.57,497.34 C1085.57,526.29 1085.57,539.67 1085.57,563.62" fill="none" id="EntityMentionResolutionRequest-EntityMention" style="stroke:#181818;stroke-width:1;"/><polygon fill="#181818" points="1085.57,485.34,1081.57,491.34,1085.57,497.34,1089.57,491.34,1085.57,485.34" style="stroke:#181818;stroke-width:1;"/><polygon fill="#181818" points="1085.57,569.62,1089.57,560.62,1085.57,564.62,1081.57,560.62,1085.57,569.62" style="stroke:#181818;stroke-width:1;"/><text fill="#000000" font-family="sans-serif" font-size="13" lengthAdjust="spacing" textLength="90.0923" x="1086.57" y="527.9269">entityMention</text><text fill="#000000" font-family="sans-serif" font-size="13" lengthAdjust="spacing" textLength="8.271" x="1076.9538" y="559.0177">1</text></g><!--reverse link ERERequest to EntityMentionResolutionRequest--><g class="link" data-entity-1="ERERequest" data-entity-2="EntityMentionResolutionRequest" data-source-line="46" data-uid="lnk14" id="link_ERERequest_EntityMentionResolutionRequest"><path codeLine="46" d="M909.726,272.8379 C934.516,291.1579 949.05,301.91 976.85,322.45" fill="none" id="ERERequest-backto-EntityMentionResolutionRequest" style="stroke:#181818;stroke-width:1;"/><polygon fill="none" points="895.25,262.14,906.1601,277.6632,913.292,268.0125,895.25,262.14" style="stroke:#181818;stroke-width:1;"/></g><!--reverse link EREResponse to FullRebuildResponse--><g class="link" data-entity-1="EREResponse" data-entity-2="FullRebuildResponse" data-source-line="66" data-uid="lnk18" id="link_EREResponse_FullRebuildResponse"><path codeLine="66" d="M529.6,276.7172 C549.23,305.1772 563.88,326.43 583.55,354.95" fill="none" id="EREResponse-backto-FullRebuildResponse" style="stroke:#181818;stroke-width:1;"/><polygon fill="none" points="519.38,261.9,524.661,280.1239,534.5391,273.3106,519.38,261.9" style="stroke:#181818;stroke-width:1;"/></g><!--reverse link EREResponse to EREErrorResponse--><g class="link" data-entity-1="EREResponse" data-entity-2="EREErrorResponse" data-source-line="67" data-uid="lnk19" id="link_EREResponse_EREErrorResponse"><path codeLine="67" d="M379.6873,247.3529 C322.5973,266.4229 265.19,288.79 203.57,322.78 C197.89,325.92 192.16,329.33 186.48,332.91" fill="none" id="EREResponse-backto-EREErrorResponse" style="stroke:#181818;stroke-width:1;"/><polygon fill="none" points="396.76,241.65,377.7863,241.662,381.5882,253.0438,396.76,241.65" style="stroke:#181818;stroke-width:1;"/></g><!--reverse link EREMessage to EREResponse--><g class="link" data-entity-1="EREMessage" data-entity-2="EREResponse" data-source-line="68" data-uid="lnk20" id="link_EREMessage_EREResponse"><path codeLine="68" d="M550.0714,118.9467 C537.0414,138.1167 532.17,145.28 519.12,164.47" fill="none" id="EREMessage-backto-EREResponse" style="stroke:#181818;stroke-width:1;"/><polygon fill="none" points="560.19,104.06,545.1092,115.5738,555.0336,122.3196,560.19,104.06" style="stroke:#181818;stroke-width:1;"/></g><!--reverse link ERERequest to FullRebuildRequest--><g class="link" data-entity-1="ERERequest" data-entity-2="FullRebuildRequest" data-source-line="74" data-uid="lnk22" id="link_ERERequest_FullRebuildRequest"><path codeLine="74" d="M830.57,279.9 C830.57,308.36 830.57,326.43 830.57,354.95" fill="none" id="ERERequest-backto-FullRebuildRequest" style="stroke:#181818;stroke-width:1;"/><polygon fill="none" points="830.57,261.9,824.57,279.9,836.57,279.9,830.57,261.9" style="stroke:#181818;stroke-width:1;"/></g><!--reverse link EREMessage to ERERequest--><g class="link" data-entity-1="EREMessage" data-entity-2="ERERequest" data-source-line="75" data-uid="lnk23" id="link_EREMessage_ERERequest"><path codeLine="75" d="M680.658,114.1419 C709.898,133.2919 728.46,145.45 757.69,164.59" fill="none" id="EREMessage-backto-ERERequest" style="stroke:#181818;stroke-width:1;"/><polygon fill="none" points="665.6,104.28,677.3707,119.1612,683.9453,109.1225,665.6,104.28" style="stroke:#181818;stroke-width:1;"/></g><!--SRC=[tLQnRjim4Dtr5GTDRM2dxPgXG96gG8OiIhSWHIZgP1EWI9MaaXg1_xr7Kh8jMPQpj0sQnGhvUDAzU_UEN39h8SsK4svpY_IZLOvMoxPxQhIocCBz_SiN1HXWO7O0_nWGzE1Qex24OWDkZP3bsUNsuG5U4g2_bqgWBBTWTMiutfHm1TOPeLO0Wts3FrkqxZGWVi7tJOEd48xstedt9mCOpFkNpC2Sg0d2wYPYIkRGBn5gcx22ZZ3kHhJTbFwtGcCZNS2rSameD4G8Sx0okcri88SvUcVHEhIW44jYpMaGyVm6s8xeEaO6eO0DMGyP_3L-jma_evCGTauc0G2MjdokdK8MFKV-DNwjEqc80kFv9omdT8I_k6o9jslPMeVcfhG7dtl_yVBouk7_qztvBbqkPpH9uLgBDZbRn5T5wGJH5I37gXEzGSAXukYBo837VV_FyrhmzO6uXOKIiOxYBr1gjLh0it01Gy4r5vHzwILI-TwWa9PhWnDouBqCJj6wZt7dGn2iaffwSjJEUJPml5nh1p5H-aI33IdI2vX96TJQcv-DkfvrlhSWZulbyZEadwWxqc7bhY3jABHfCgJXnv4Q9Y9FsiF83NPUPeENTLooiAQhiCRaybaRMNP75gG2Q8n-4kNXNBcR4W3P21sQwyyEChIrKUttBdQ-z05hnuxsnYhV9TGLFZsg41KU1ol9W8ZvuaTGN_jlhPGv5gsGvV3QiByZ14Tu7013ZCT5R51Jnpb0ZHav3Y0l0OxqYZN9WIWmRd8a_7cQUv7dMMQCDaEhw7CSEG6v7YeQFnG2_Q4FDBcmYQBdl3NMswB4FaV_GQmNrzJSyp7cL1u1mibvn5UagIldWr1Vl8rBLfxT4ZLiTM3A_QxdSTYV-viLrtKTjmjDGsNNiKoLNfAjTFQ4Z5wJrjcSZflqo5QdMcRIViUAImQaz9WZEpxkj5r7nkjOeCxYOA9rxHtuQre_WAs6Yfd0MwD9euNSx7gJ3jNUfl-DxOsjQYBXKrJ5tTy0]--></g></svg>